<?xml version="1.0" encoding="utf-8"?>
<!-- Generator: Adobe Illustrator 20.1.0, SVG Export Plug-In . SVG Version: 6.00 Build 0)  -->
<svg version="1.1" id="scene" xmlns="http://www.w3.org/2000/svg" xmlns:xlink="http://www.w3.org/1999/xlink" x="0px" y="0px"
	 viewBox="0 0 1000 1000" style="enable-background:new 0 0 1000 1000;" xml:space="preserve">
<style type="text/css">
	.hide{visibility:hidden;}
	.st0{fill:#0F7173;}
	.st1{fill:#DCD5FF;}
	.st2{fill:#FFFFFF;}
	.st3{fill:#71B8FF;}
	.st4{fill:#666666;}
	.st5{fill:#CECECE;}
	.st6{fill:#F5F5F5;}
	.st7{fill:#705CFF;}
	.st8{fill:#FFE58F;}
	.st9{fill:#B2372F;}
	.st10{fill:#83FF71;}
	.st11{fill:#FF6EC5;}
	.st12{fill:#57F2EA;}
	.st13{fill:#9B9B9B;}
	.st14{fill:#626263;}
	.st15{fill:#48F972;}
	.st16{fill:#F74B4B;}
	.st17{fill:#FFBC73;}
	.st18{fill:#CB71FF;}
	.st19{fill:#719DFF;}
	.st20{fill:#71FF9C;}
	.st21{fill:#FF7171;}
	.st22{fill:#F8FF71;}
	.st23{fill:#C9C9C9;}
	.st24{display:none;}
	.st25{display:inline;fill:#CCCCCC;}
	.st26{font-family:'MyriadPro-Regular';}
	.st27{font-size:15.0635px;}
	.st28{letter-spacing:41;}
	.st29{fill:#777777;}
	.st30{fill:#FF0B11;}
	.st31{fill:#FCFF10;}
	.st32{fill:#00F304;}
	.st33{display:none;fill:#F2F2F2;}
	.st34{fill:#F2F2F2;}
	.st35{fill:#B1ABFF;}
	.st36{fill:#3A3A3A;}
	.st37{fill:#F9F9F9;}
	.st38{fill:#29BEFF;}
	.st39{fill:#7C7C7C;}
	.st40{fill:#595959;}
	.st41{fill:#C1C1C1;}
	.st42{fill:url(#SVGID_1_);}
	.st43{fill:url(#SVGID_2_);}
	.st44{fill:url(#SVGID_3_);}
	.st45{fill:#00C3FF;}
	.st46{fill:#282C34;}
	.st47{fill:#777C84;}
	.st48{fill:#B458FF;}
	.st49{fill:#53C6FF;}
	.st50{fill:#FF4D65;}
	.st51{fill:#FFA86C;}
	.st52{fill:#8DFF79;}
	.st53{fill:#21252B;}
	.st54{fill:#A5A5A5;}
	.st55{fill:#0081E6;}
	.st56{fill:#BFBFBF;}
	.st57{fill:#DBDBDB;}
	.st58{fill:#CCCCCC;}
	.st59{fill:#0DF797;}
	.st60{fill:#4F4F4F;}
	.st61{fill:#A3A09F;}
	.st62{fill:#BA926A;}
	.st63{fill:#EDEDED;}
	.st64{fill:#282828;}
	.st65{fill:#B7D9ED;}
	.st66{fill:#69C9F9;}
	.st67{opacity:0.61;fill:#FCFCFC;}
</style>

	<path id="background" class="st0" d="M500,999.4L500,999.4C225.3,999.4,0.6,774.7,0.6,500v0C0.6,225.3,225.3,0.6,500,0.6h0
	c274.7,0,499.4,224.7,499.4,499.4v0C999.4,774.7,774.7,999.4,500,999.4z"/>
<g id="facebook">
	<rect x="261" y="291.9" class="st1" width="476.5" height="234.1"/>
	<g id="newsfeed">
		<g id="post3">
			<rect id="post_x5F_background" x="399.9" y="433.3" class="st2" width="92.9" height="105.6"/>
			<rect id="post_x5F_content_2_" x="403.7" y="450.6" class="st3" width="85.2" height="54.1"/>
			<rect id="post_x5F_profile_2_" x="403.9" y="437" class="st4" width="10.5" height="10.5"/>
			<rect id="post_x5F_commentBox_2_" x="399.9" y="517.8" class="st5" width="92.9" height="22.4"/>
			<rect id="post_x5F_commect_2_" x="412.6" y="530" class="st6" width="76.3" height="5.6"/>
			<rect id="post_x5F_commenter_2_" x="403.7" y="530" class="st6" width="5.6" height="5.6"/>
			<circle id="post_x5F_like_2_" class="st7" cx="406.6" cy="523.5" r="2.6"/>
			<circle id="post_x5F_emote_2_" class="st8" cx="414.5" cy="523.5" r="2.6"/>
			<circle id="post_x5F_emote2_2_" class="st9" cx="422.3" cy="523.5" r="2.6"/>
			<path id="post_x5F_name_2_" class="st7" d="M476.3,442.2h-58.1c-0.6,0-1-0.5-1-1v-0.5c0-0.6,0.5-1,1-1h58.1c0.6,0,1,0.5,1,1v0.5
				C477.3,441.8,476.8,442.2,476.3,442.2z"/>
			<path id="post_x5F_subtitle_2_" class="st5" d="M431.6,447.1h-13.5c-0.6,0-1-0.5-1-1v-0.5c0-0.6,0.5-1,1-1h13.5c0.6,0,1,0.5,1,1
				v0.5C432.7,446.6,432.2,447.1,431.6,447.1z"/>
			<rect x="403.9" y="508.7" class="st5" width="12.3" height="5"/>
			<rect x="418.7" y="508.7" class="st5" width="12.3" height="5"/>
			<rect x="433.5" y="508.7" class="st5" width="12.3" height="5"/>
		</g>
		<g id="post2">
			<rect id="post_x5F_background_1_" x="399.9" y="201.7" class="st2" width="92.9" height="105.6"/>
			<rect id="post_x5F_content_3_" x="403.7" y="219" class="st10" width="85.2" height="54.1"/>
			<rect id="post_x5F_profile_15_" x="403.9" y="205.4" class="st4" width="10.5" height="10.5"/>
			<rect id="post_x5F_commentBox_3_" x="399.9" y="286.2" class="st5" width="92.9" height="22.4"/>
			<rect id="post_x5F_commect_3_" x="412.6" y="298.4" class="st6" width="76.3" height="5.6"/>
			<rect id="post_x5F_commenter_3_" x="403.7" y="298.4" class="st6" width="5.6" height="5.6"/>
			<circle id="post_x5F_like_3_" class="st7" cx="406.6" cy="291.9" r="2.6"/>
			<circle id="post_x5F_emote_3_" class="st8" cx="414.5" cy="291.9" r="2.6"/>
			<circle id="post_x5F_emote2_3_" class="st9" cx="422.3" cy="291.9" r="2.6"/>
			<path id="post_x5F_name_3_" class="st7" d="M476.3,210.6h-58.1c-0.6,0-1-0.5-1-1v-0.5c0-0.6,0.5-1,1-1h58.1c0.6,0,1,0.5,1,1v0.5
				C477.3,210.2,476.8,210.6,476.3,210.6z"/>
			<path id="post_x5F_subtitle_3_" class="st5" d="M431.6,215.5h-13.5c-0.6,0-1-0.5-1-1v-0.5c0-0.6,0.5-1,1-1h13.5c0.6,0,1,0.5,1,1
				v0.5C432.7,215,432.2,215.5,431.6,215.5z"/>
			<rect x="403.9" y="277.1" class="st5" width="12.3" height="5"/>
			<rect x="418.7" y="277.1" class="st5" width="12.3" height="5"/>
			<rect x="433.5" y="277.1" class="st5" width="12.3" height="5"/>
		</g>
		<g id="post1">
			<rect x="399.9" y="318.2" class="st2" width="92.9" height="105.6"/>
			<rect id="post_x5F_content" x="403.7" y="335.4" class="st11" width="85.2" height="54.1"/>
			<rect id="post_x5F_profile" x="403.9" y="321.8" class="st4" width="10.5" height="10.5"/>
			<rect id="post_x5F_commentBox" x="399.9" y="402.6" class="st5" width="92.9" height="22.4"/>
			<rect id="post_x5F_commect" x="412.6" y="414.9" class="st6" width="76.3" height="5.6"/>
			<rect id="post_x5F_commenter" x="403.7" y="414.9" class="st6" width="5.6" height="5.6"/>
			<circle id="post_x5F_like" class="st7" cx="406.6" cy="408.3" r="2.6"/>
			<circle id="post_x5F_emote" class="st8" cx="414.5" cy="408.3" r="2.6"/>
			<circle id="post_x5F_emote2" class="st9" cx="422.3" cy="408.3" r="2.6"/>
			<path id="post_x5F_name" class="st7" d="M476.3,327.1h-58.1c-0.6,0-1-0.5-1-1v-0.5c0-0.6,0.5-1,1-1h58.1c0.6,0,1,0.5,1,1v0.5
				C477.3,326.6,476.8,327.1,476.3,327.1z"/>
			<path id="post_x5F_subtitle" class="st5" d="M431.6,331.9h-13.5c-0.6,0-1-0.5-1-1v-0.5c0-0.6,0.5-1,1-1h13.5c0.6,0,1,0.5,1,1v0.5
				C432.7,331.4,432.2,331.9,431.6,331.9z"/>
			<rect x="403.9" y="393.5" class="st5" width="12.3" height="5"/>
			<rect x="418.7" y="393.5" class="st5" width="12.3" height="5"/>
			<rect x="433.5" y="393.5" class="st5" width="12.3" height="5"/>
		</g>
	</g>
	<g id="advertisements">
		<rect x="500.6" y="340.6" class="st2" width="81.6" height="82.9"/>
		<rect x="505.3" y="354.2" class="st12" width="72.5" height="42.3"/>
		<path class="st5" d="M534,349h-27.7c-0.6,0-1.1-0.5-1.1-1.1v-0.5c0-0.6,0.5-1.1,1.1-1.1H534c0.6,0,1.1,0.5,1.1,1.1v0.5
			C535.1,348.6,534.6,349,534,349z"/>
		<path class="st7" d="M552.3,402.7h-46c-0.6,0-1.1-0.5-1.1-1.1v-0.5c0-0.6,0.5-1.1,1.1-1.1h46c0.6,0,1.1,0.5,1.1,1.1v0.5
			C553.4,402.3,552.9,402.7,552.3,402.7z"/>
		<path class="st7" d="M576.7,349h-14c-0.6,0-1.1-0.5-1.1-1.1v-0.5c0-0.6,0.5-1.1,1.1-1.1h14c0.6,0,1.1,0.5,1.1,1.1v0.5
			C577.8,348.6,577.3,349,576.7,349z"/>
		<path class="st5" d="M576.7,411.1h-70.4c-0.6,0-1.1-0.5-1.1-1.1v-0.5c0-0.6,0.5-1.1,1.1-1.1h70.4c0.6,0,1.1,0.5,1.1,1.1v0.5
			C577.8,410.6,577.3,411.1,576.7,411.1z"/>
		<path class="st7" d="M519.3,406.9h-12.9c-0.6,0-1.1-0.5-1.1-1.1v-0.5c0-0.6,0.5-1.1,1.1-1.1h12.9c0.6,0,1.1,0.5,1.1,1.1v0.5
			C520.3,406.4,519.9,406.9,519.3,406.9z"/>
		<path class="st5" d="M540.3,416.2h-33.9c-0.6,0-1.1-0.5-1.1-1.1v-0.5c0-0.6,0.5-1.1,1.1-1.1h33.9c0.6,0,1.1,0.5,1.1,1.1v0.5
			C541.3,415.7,540.9,416.2,540.3,416.2z"/>
		<rect x="500.7" y="429.2" class="st2" width="81.6" height="16.1"/>
		<path class="st7" d="M576.7,436.3h-46c-0.6,0-1.1-0.5-1.1-1.1v-0.5c0-0.6,0.5-1.1,1.1-1.1h46c0.6,0,1.1,0.5,1.1,1.1v0.5
			C577.8,435.8,577.3,436.3,576.7,436.3z"/>
		<path class="st7" d="M576.7,441.4h-70.4c-0.6,0-1.1-0.5-1.1-1.1v-0.5c0-0.6,0.5-1.1,1.1-1.1h70.4c0.6,0,1.1,0.5,1.1,1.1v0.5
			C577.8,440.9,577.3,441.4,576.7,441.4z"/>
		<path class="st5" d="M524.5,436.3h-18.2c-0.6,0-1.1-0.5-1.1-1.1v-0.5c0-0.6,0.5-1.1,1.1-1.1h18.2c0.6,0,1.1,0.5,1.1,1.1v0.5
			C525.6,435.8,525.1,436.3,524.5,436.3z"/>
		<path class="st13" d="M576.7,452.1h-70.4c-0.6,0-1.1-0.5-1.1-1.1v-0.5c0-0.6,0.5-1.1,1.1-1.1h70.4c0.6,0,1.1,0.5,1.1,1.1v0.5
			C577.8,451.6,577.3,452.1,576.7,452.1z"/>
		<path class="st13" d="M526.6,458.1h-20.3c-0.6,0-1.1-0.5-1.1-1.1v-0.5c0-0.6,0.5-1.1,1.1-1.1h20.3c0.6,0,1.1,0.5,1.1,1.1v0.5
			C527.7,457.6,527.2,458.1,526.6,458.1z"/>
		<path class="st13" d="M518.2,464.3h-11.8c-0.6,0-1.1-0.5-1.1-1.1v-0.5c0-0.6,0.5-1.1,1.1-1.1h11.8c0.6,0,1.1,0.5,1.1,1.1v0.5
			C519.2,463.8,518.8,464.3,518.2,464.3z"/>
	</g>
	<g id="chats">
		<rect x="539.3" y="514.7" class="st2" width="55.8" height="11.2"/>
		<path class="st14" d="M549.7,522.1h24.9c0.8,0,1.4-0.6,1.4-1.4V520c0-0.8-0.6-1.4-1.4-1.4h-24.9c-0.8,0-1.4,0.6-1.4,1.4v0.7
			C548.3,521.4,549,522.1,549.7,522.1z"/>
		<path class="st15" d="M544.3,522.1h0.7c0.8,0,1.4-0.6,1.4-1.4V520c0-0.8-0.6-1.4-1.4-1.4h-0.7c-0.8,0-1.4,0.6-1.4,1.4v0.7
			C542.9,521.4,543.6,522.1,544.3,522.1z"/>
		<rect x="604.2" y="514.7" class="st2" width="55.8" height="11.2"/>
		<path class="st14" d="M614.7,522.1h24.9c0.8,0,1.4-0.6,1.4-1.4V520c0-0.8-0.6-1.4-1.4-1.4h-24.9c-0.8,0-1.4,0.6-1.4,1.4v0.7
			C613.3,521.4,613.9,522.1,614.7,522.1z"/>
		<path class="st16" d="M609.3,522.1h0.7c0.8,0,1.4-0.6,1.4-1.4V520c0-0.8-0.6-1.4-1.4-1.4h-0.7c-0.8,0-1.4,0.6-1.4,1.4v0.7
			C607.9,521.4,608.5,522.1,609.3,522.1z"/>
	</g>
	<g id="sidebar">
		<rect x="637.3" y="332.1" class="st1" width="51.5" height="147.6"/>
		<rect id="post_x5F_profile_13_" x="677.3" y="345.2" class="st12" width="10.5" height="10.5"/>
		<rect id="post_x5F_profile_12_" x="677.3" y="360.1" class="st11" width="10.5" height="10.5"/>
		<rect id="post_x5F_profile_11_" x="677.3" y="375.3" class="st10" width="10.5" height="10.5"/>
		<rect id="post_x5F_profile_10_" x="677.3" y="390.5" class="st7" width="10.5" height="10.5"/>
		<rect id="post_x5F_profile_8_" x="677.3" y="405.4" class="st17" width="10.5" height="10.5"/>
		<rect id="post_x5F_profile_7_" x="677.3" y="420.6" class="st18" width="10.5" height="10.5"/>
		<rect id="post_x5F_profile_6_" x="677.3" y="435.8" class="st19" width="10.5" height="10.5"/>
		<rect id="post_x5F_profile_5_" x="677.3" y="450.7" class="st20" width="10.5" height="10.5"/>
		<rect id="post_x5F_profile_4_" x="677.3" y="465.9" class="st21" width="10.5" height="10.5"/>
		<rect id="post_x5F_profile_3_" x="677.3" y="481.1" class="st22" width="10.5" height="10.5"/>
		<rect id="post_x5F_profile_1_" x="677.3" y="495.9" class="st11" width="10.5" height="10.5"/>
		<rect x="672.8" y="514.7" class="st2" width="64.6" height="12.2"/>
		<circle class="st23" cx="680.1" cy="520.8" r="2.5"/>
		<path class="st13" d="M728,349.4h-33.3c-0.7,0-1.3-0.6-1.3-1.3v-0.7c0-0.7,0.6-1.3,1.3-1.3H728c0.7,0,1.3,0.6,1.3,1.3v0.7
			C729.3,348.8,728.7,349.4,728,349.4z"/>
		<path class="st13" d="M728,367h-33.3c-0.7,0-1.3-0.6-1.3-1.3V365c0-0.7,0.6-1.3,1.3-1.3H728c0.7,0,1.3,0.6,1.3,1.3v0.7
			C729.3,366.4,728.7,367,728,367z"/>
		<path class="st13" d="M717.9,382.2h-23.1c-0.7,0-1.3-0.6-1.3-1.3v-0.7c0-0.7,0.6-1.3,1.3-1.3h23.1c0.7,0,1.3,0.6,1.3,1.3v0.7
			C719.2,381.6,718.6,382.2,717.9,382.2z"/>
		<path class="st13" d="M728,412.3h-33.3c-0.7,0-1.3-0.6-1.3-1.3v-0.7c0-0.7,0.6-1.3,1.3-1.3H728c0.7,0,1.3,0.6,1.3,1.3v0.7
			C729.3,411.7,728.7,412.3,728,412.3z"/>
		<path class="st13" d="M728,442.7h-33.3c-0.7,0-1.3-0.6-1.3-1.3v-0.7c0-0.7,0.6-1.3,1.3-1.3H728c0.7,0,1.3,0.6,1.3,1.3v0.7
			C729.3,442.1,728.7,442.7,728,442.7z"/>
		<path class="st13" d="M727.3,472H694c-0.7,0-1.3-0.6-1.3-1.3V470c0-0.7,0.6-1.3,1.3-1.3h33.3c0.7,0,1.3,0.6,1.3,1.3v0.7
			C728.6,471.4,728.1,472,727.3,472z"/>
		<path class="st13" d="M727.3,502.9H694c-0.7,0-1.3-0.6-1.3-1.3v-0.7c0-0.7,0.6-1.3,1.3-1.3h33.3c0.7,0,1.3,0.6,1.3,1.3v0.7
			C728.6,502.3,728.1,502.9,727.3,502.9z"/>
		<path class="st13" d="M710.1,354.4h-15.3c-0.7,0-1.3-0.6-1.3-1.3v-0.7c0-0.7,0.6-1.3,1.3-1.3h15.3c0.7,0,1.3,0.6,1.3,1.3v0.7
			C711.4,353.8,710.8,354.4,710.1,354.4z"/>
		<path class="st13" d="M728,394.9h-33.3c-0.7,0-1.3-0.6-1.3-1.3v-0.7c0-0.7,0.6-1.3,1.3-1.3H728c0.7,0,1.3,0.6,1.3,1.3v0.7
			C729.3,394.3,728.7,394.9,728,394.9z"/>
		<path class="st13" d="M716.7,399.9h-21.9c-0.7,0-1.3-0.6-1.3-1.3v-0.7c0-0.7,0.6-1.3,1.3-1.3h21.9c0.7,0,1.3,0.6,1.3,1.3v0.7
			C718,399.3,717.4,399.9,716.7,399.9z"/>
		<path class="st13" d="M728,425h-33.3c-0.7,0-1.3-0.6-1.3-1.3V423c0-0.7,0.6-1.3,1.3-1.3H728c0.7,0,1.3,0.6,1.3,1.3v0.7
			C729.3,424.4,728.7,425,728,425z"/>
		<path class="st13" d="M728,430h-33.3c-0.7,0-1.3-0.6-1.3-1.3V428c0-0.7,0.6-1.3,1.3-1.3H728c0.7,0,1.3,0.6,1.3,1.3v0.7
			C729.3,429.4,728.7,430,728,430z"/>
		<path class="st13" d="M728,455h-33.3c-0.7,0-1.3-0.6-1.3-1.3V453c0-0.7,0.6-1.3,1.3-1.3H728c0.7,0,1.3,0.6,1.3,1.3v0.7
			C729.3,454.4,728.7,455,728,455z"/>
		<path class="st13" d="M706.1,460.1h-11.4c-0.7,0-1.3-0.6-1.3-1.3v-0.7c0-0.7,0.6-1.3,1.3-1.3h11.4c0.7,0,1.3,0.6,1.3,1.3v0.7
			C707.4,459.5,706.8,460.1,706.1,460.1z"/>
		<path class="st13" d="M728,485.4h-33.3c-0.7,0-1.3-0.6-1.3-1.3v-0.7c0-0.7,0.6-1.3,1.3-1.3H728c0.7,0,1.3,0.6,1.3,1.3v0.7
			C729.3,484.8,728.7,485.4,728,485.4z"/>
		<path class="st13" d="M713.8,490.5h-19.1c-0.7,0-1.3-0.6-1.3-1.3v-0.7c0-0.7,0.6-1.3,1.3-1.3h19.1c0.7,0,1.3,0.6,1.3,1.3v0.7
			C715.1,489.9,714.5,490.5,713.8,490.5z"/>
	</g>
	<g id="browser_x5F_container">
		<text transform="matrix(1 0 0 1 244.4795 486.1084)" class="st24"><tspan x="0" y="0" class="st25 st26 st27">&lt;div&gt;</tspan><tspan x="0" y="18.1" class="st25 st26 st27 st28">	</tspan><tspan x="45.2" y="18.1" class="st25 st26 st27">&lt;h1&gt;Hello World!&lt;/h1&gt;</tspan><tspan x="0" y="36.2" class="st25 st26 st27 st28">	</tspan><tspan x="45.2" y="36.2" class="st25 st26 st27">&lt;h2&gt;Welcome to my Website!&lt;/h2&gt;</tspan></text>
		<rect id="browser_x5F_bar" x="261" y="292.1" class="st29" width="476.5" height="31.1"/>
		<path class="st2" d="M584.7,314.7H303.5c-1.6,0-2.9-1.3-2.9-2.9v-3.6c0-1.6,1.3-2.9,2.9-2.9h281.3c1.6,0,2.9,1.3,2.9,2.9v3.6
			C587.7,313.4,586.3,314.7,584.7,314.7z"/>
		<circle id="exit_x5F_button" class="st30" cx="726.3" cy="305.3" r="4.6"/>
		<circle id="minimize_x5F_button" class="st31" cx="713.2" cy="305.3" r="4.6"/>
		<circle id="maximize_x5F_button" class="st32" cx="700.1" cy="305.3" r="4.6"/>
		<circle id="refresh_x5F_button" class="st2" cx="290.1" cy="310" r="4.7"/>
		<circle id="back_x5F_button" class="st2" cx="275" cy="310" r="4.7"/>
		<path id="search_x5F_bar" class="st2" d="M665.8,314.7H599c-1.6,0-2.9-1.3-2.9-2.9v-3.6c0-1.6,1.3-2.9,2.9-2.9h66.9
			c1.6,0,2.9,1.3,2.9,2.9v3.6C668.8,313.4,667.5,314.7,665.8,314.7z"/>
		<rect x="360.4" y="330.2" class="st33" width="277.7" height="197.3"/>
		<rect id="facebook_x5F_header" x="261" y="323.1" class="st7" width="476.5" height="16.9"/>
		<path id="facebook_x5F_button" class="st34" d="M326.4,336.4l-2.1,0.1c-2.1,0.1-3.8-1.5-3.9-3.6l-0.1-2.1
			c-0.1-2.1,1.5-3.8,3.6-3.9l2.1-0.1c2.1-0.1,3.8,1.5,3.9,3.6l0.1,2.1C330,334.5,328.4,336.3,326.4,336.4z"/>
		<path id="facebook_x5F_button1" class="st35" d="M633.4,336.3h-2c-2.1,0-3.8-1.7-3.8-3.8v-2c0-2.1,1.7-3.8,3.8-3.8h2
			c2.1,0,3.8,1.7,3.8,3.8v2C637.2,334.6,635.5,336.3,633.4,336.3z"/>
		<path id="fb_x5F_button3" class="st35" d="M619.3,336.3h-2c-2.1,0-3.8-1.7-3.8-3.8v-2c0-2.1,1.7-3.8,3.8-3.8h2
			c2.1,0,3.8,1.7,3.8,3.8v2C623.1,334.6,621.4,336.3,619.3,336.3z"/>
		<path id="fb_x5F_button2" class="st35" d="M647.5,336.6h-2c-2.1,0-3.8-1.7-3.8-3.8v-2c0-2.1,1.7-3.8,3.8-3.8h2
			c2.1,0,3.8,1.7,3.8,3.8v2C651.4,334.8,649.6,336.6,647.5,336.6z"/>
		<path id="fb_x5F_searchbar" class="st34" d="M338.8,326.9h118.7c2.1,0,3.7,1.7,3.7,3.8v1.9c0,2.1-1.7,3.8-3.7,3.8H338.8
			c-2.1,0-3.8-1.7-3.8-3.8v-1.9C335,328.6,336.7,326.9,338.8,326.9z"/>
		<path class="st16" d="M650.2,330.9h1c1.1,0,2-0.9,2-2v-1c0-1.1-0.9-2-2-2h-1c-1.1,0-2,0.9-2,2v1
			C648.2,330,649.1,330.9,650.2,330.9z"/>
	</g>
</g>
<g id="photoshop">
	<rect id="ps_background" x="261" y="291.3" class="st36" width="476.5" height="236.9"/>
	<rect id="canvas_2_" x="296.7" y="335.9" class="st37" width="176.8" height="164.9"/>
	<polygon id="star" class="st38" points="422.3,453 388.9,441 360.1,461.7 361.1,426.3 332.5,405.3 366.5,395.3 377.6,361.6
		397.6,390.9 433.1,391.1 411.4,419.2 	"/>
	<g id="toolbar">
		<g>
			<path class="st39" d="M261.2,314.3H261v212.2h14V317.9h-13.8V314.3z M268,439.4c-1.8,0-3.2-1.5-3.2-3.2c0-1.8,1.5-3.2,3.2-3.2
				c1.8,0,3.2,1.5,3.2,3.2C271.3,437.9,269.8,439.4,268,439.4z M268,419.2c-1.8,0-3.2-1.5-3.2-3.2c0-1.8,1.5-3.2,3.2-3.2
				c1.8,0,3.2,1.5,3.2,3.2C271.3,417.7,269.8,419.2,268,419.2z M268,409.1c-1.8,0-3.2-1.5-3.2-3.2c0-1.8,1.5-3.2,3.2-3.2
				c1.8,0,3.2,1.5,3.2,3.2C271.3,407.6,269.8,409.1,268,409.1z M268,389c-1.8,0-3.2-1.5-3.2-3.2c0-1.8,1.5-3.2,3.2-3.2
				c1.8,0,3.2,1.5,3.2,3.2C271.3,387.5,269.8,389,268,389z M268,378.9c-1.8,0-3.2-1.5-3.2-3.2s1.5-3.2,3.2-3.2
				c1.8,0,3.2,1.5,3.2,3.2S269.8,378.9,268,378.9z M268,358.7c-1.8,0-3.2-1.5-3.2-3.2s1.5-3.2,3.2-3.2c1.8,0,3.2,1.5,3.2,3.2
				S269.8,358.7,268,358.7z M268,348.6c-1.8,0-3.2-1.5-3.2-3.2c0-1.8,1.5-3.2,3.2-3.2c1.8,0,3.2,1.5,3.2,3.2
				C271.3,347.2,269.8,348.6,268,348.6z M268,322c1.8,0,3.2,1.5,3.2,3.2c0,1.8-1.5,3.2-3.2,3.2c-1.8,0-3.2-1.5-3.2-3.2
				C264.8,323.4,266.2,322,268,322z M267.9,332c1.8,0,3.2,1.5,3.2,3.2c0,1.8-1.5,3.2-3.2,3.2c-1.8,0-3.2-1.5-3.2-3.2
				C264.7,333.5,266.1,332,267.9,332z M267.9,362.3c1.8,0,3.2,1.5,3.2,3.2c0,1.8-1.5,3.2-3.2,3.2c-1.8,0-3.2-1.5-3.2-3.2
				C264.7,363.7,266.1,362.3,267.9,362.3z M267.9,392.5c1.8,0,3.2,1.5,3.2,3.2s-1.5,3.2-3.2,3.2c-1.8,0-3.2-1.5-3.2-3.2
				S266.1,392.5,267.9,392.5z M267.9,422.8c1.8,0,3.2,1.5,3.2,3.2c0,1.8-1.5,3.2-3.2,3.2c-1.8,0-3.2-1.5-3.2-3.2
				C264.7,424.2,266.1,422.8,267.9,422.8z"/>
			<rect x="261.2" y="314.3" class="st40" width="13.8" height="3.6"/>
			<circle class="st41" cx="268" cy="325.2" r="3.2"/>
			<circle class="st41" cx="267.9" cy="335.3" r="3.2"/>
			<circle class="st41" cx="268" cy="345.4" r="3.2"/>
			<circle class="st41" cx="268" cy="355.5" r="3.2"/>
			<circle class="st41" cx="267.9" cy="365.5" r="3.2"/>
			<circle class="st41" cx="268" cy="375.6" r="3.2"/>
			<circle class="st41" cx="268" cy="385.7" r="3.2"/>
			<circle class="st41" cx="267.9" cy="395.8" r="3.2"/>
			<circle class="st41" cx="268" cy="405.9" r="3.2"/>
			<circle class="st41" cx="268" cy="416" r="3.2"/>
			<circle class="st41" cx="267.9" cy="426" r="3.2"/>
			<circle class="st41" cx="268" cy="436.1" r="3.2"/>
		</g>
	</g>
	<g id="navigator">
		<g>
			<path class="st39" d="M496.8,369.3H547v-8.2h-50.1V369.3z M516,363.9c0.8,0,1.5,0.7,1.5,1.5c0,0.8-0.7,1.5-1.5,1.5
				c-0.8,0-1.5-0.7-1.5-1.5C514.5,364.6,515.2,363.9,516,363.9z M503.7,363.8h9.2v3h-9.2V363.8z M500.4,363.9c0.8,0,1.4,0.6,1.4,1.4
				c0,0.8-0.6,1.4-1.4,1.4s-1.4-0.6-1.4-1.4C499,364.5,499.7,363.9,500.4,363.9z"/>
			<polygon class="st39" points="547,322.5 546.7,322.5 546.7,327.4 508.3,327.4 508.3,322.5 496.8,322.5 496.8,327.4 496.8,333.4
				547,333.4 			"/>
			<rect x="508.3" y="322.5" class="st40" width="38.4" height="4.8"/>
			<polygon class="st37" points="547.1,333.4 547,333.4 496.8,333.4 496.8,361.2 547,361.2 547.1,361.2 			"/>
			<rect x="503.7" y="363.8" class="st41" width="9.2" height="3"/>
			<circle class="st41" cx="500.4" cy="365.3" r="1.4"/>
			<circle class="st41" cx="516" cy="365.4" r="1.5"/>
		</g>
	</g>
	<g id="layers_x5F_extensions">
		<g>
			<path class="st40" d="M687.9,314.3v6.2h49.7v-6.2H687.9z M699.8,318.7h-7.4c-0.7,0-1.2-0.6-1.2-1.2c0-0.7,0.6-1.2,1.2-1.2h7.4
				c0.7,0,1.2,0.6,1.2,1.2C701,318.2,700.5,318.7,699.8,318.7z"/>
			<rect x="563.4" y="526" class="st39" width="106.4" height="0.5"/>
			<rect x="563.4" y="432.8" class="st39" width="106.4" height="83.6"/>
			<rect x="595.5" y="314.3" class="st40" width="74.2" height="6.2"/>
			<path class="st40" d="M579.8,314.3h-16.4v6.2h16.4V314.3z M575.3,318.6h-7.4c-0.7,0-1.2-0.6-1.2-1.2c0-0.7,0.6-1.2,1.2-1.2h7.4
				c0.7,0,1.2,0.6,1.2,1.2C576.5,318,576,318.6,575.3,318.6z"/>
			<path class="st39" d="M687.9,314.3h-15.7v6.2v0.3v205.8h65.5v-206h-49.7V314.3z M676.5,316.1h7.4c0.7,0,1.2,0.6,1.2,1.2
				c0,0.7-0.6,1.2-1.2,1.2h-7.4c-0.7,0-1.2-0.6-1.2-1.2C675.3,316.7,675.8,316.1,676.5,316.1z M696.3,343.1h-17.8
				c-0.7,0-1.2-0.6-1.2-1.2s0.6-1.2,1.2-1.2h17.8c0.7,0,1.2,0.6,1.2,1.2S697,343.1,696.3,343.1z M729.6,336.8h-51.1
				c-0.7,0-1.2-0.6-1.2-1.2c0-0.7,0.6-1.2,1.2-1.2h51.1c0.7,0,1.2,0.6,1.2,1.2C730.9,336.2,730.3,336.8,729.6,336.8z M730.9,329
				c0,0.7-0.6,1.2-1.2,1.2h-51.1c-0.7,0-1.2-0.6-1.2-1.2c0-0.7,0.6-1.2,1.2-1.2h51.1C730.3,327.8,730.9,328.3,730.9,329z"/>
			<path class="st41" d="M676.5,318.6h7.4c0.7,0,1.2-0.6,1.2-1.2c0-0.7-0.6-1.2-1.2-1.2h-7.4c-0.7,0-1.2,0.6-1.2,1.2
				C675.3,318,675.8,318.6,676.5,318.6z"/>
			<path class="st41" d="M557.4,316.1H550c-0.7,0-1.2,0.6-1.2,1.2c0,0.7,0.6,1.2,1.2,1.2h7.4c0.7,0,1.2-0.6,1.2-1.2
				C558.7,316.7,558.1,316.1,557.4,316.1z"/>
			<path class="st41" d="M699.8,316.3h-7.4c-0.7,0-1.2,0.6-1.2,1.2c0,0.7,0.6,1.2,1.2,1.2h7.4c0.7,0,1.2-0.6,1.2-1.2
				C701,316.8,700.5,316.3,699.8,316.3z"/>
			<path class="st41" d="M575.3,316.1h-7.4c-0.7,0-1.2,0.6-1.2,1.2c0,0.7,0.6,1.2,1.2,1.2h7.4c0.7,0,1.2-0.6,1.2-1.2
				C576.5,316.7,576,316.1,575.3,316.1z"/>
			<path class="st39" d="M595.5,314.3h-15.7v6.2h-16.4v51.9v0.1v6.2v0.1v33.9v0.1v6.2h15.7v-6.2h90.6v-34.1h-90.6v-6.2h90.6v-52.1
				h-74.2V314.3z M584,316.1h7.4c0.7,0,1.2,0.6,1.2,1.2c0,0.7-0.6,1.2-1.2,1.2H584c-0.7,0-1.2-0.6-1.2-1.2
				C582.7,316.7,583.3,316.1,584,316.1z M575,417h-7.4c-0.7,0-1.2-0.6-1.2-1.2s0.6-1.2,1.2-1.2h7.4c0.7,0,1.2,0.6,1.2,1.2
				S575.7,417,575,417z M629.7,397.7c1.8,0,3.2,1.5,3.2,3.2c0,1.8-1.5,3.2-3.2,3.2c-1.8,0-3.2-1.5-3.2-3.2
				C626.5,399.2,627.9,397.7,629.7,397.7z M623.9,387.9c1.8,0,3.2,1.5,3.2,3.2c0,1.8-1.5,3.2-3.2,3.2c-1.8,0-3.2-1.5-3.2-3.2
				C620.7,389.3,622.1,387.9,623.9,387.9z M618.4,397.7c1.8,0,3.2,1.5,3.2,3.2c0,1.8-1.5,3.2-3.2,3.2s-3.2-1.5-3.2-3.2
				C615.1,399.2,616.6,397.7,618.4,397.7z M612.6,387.9c1.8,0,3.2,1.5,3.2,3.2c0,1.8-1.5,3.2-3.2,3.2c-1.8,0-3.2-1.5-3.2-3.2
				C609.3,389.3,610.8,387.9,612.6,387.9z M606.8,397.7c1.8,0,3.2,1.5,3.2,3.2c0,1.8-1.5,3.2-3.2,3.2c-1.8,0-3.2-1.5-3.2-3.2
				C603.5,399.2,605,397.7,606.8,397.7z M601,387.9c1.8,0,3.2,1.5,3.2,3.2c0,1.8-1.5,3.2-3.2,3.2s-3.2-1.5-3.2-3.2
				C597.7,389.3,599.2,387.9,601,387.9z M595.2,397.7c1.8,0,3.2,1.5,3.2,3.2c0,1.8-1.5,3.2-3.2,3.2c-1.8,0-3.2-1.5-3.2-3.2
				C591.9,399.2,593.4,397.7,595.2,397.7z M589.4,387.9c1.8,0,3.2,1.5,3.2,3.2c0,1.8-1.5,3.2-3.2,3.2c-1.8,0-3.2-1.5-3.2-3.2
				C586.1,389.3,587.6,387.9,589.4,387.9z M583.6,397.7c1.8,0,3.2,1.5,3.2,3.2c0,1.8-1.5,3.2-3.2,3.2c-1.8,0-3.2-1.5-3.2-3.2
				C580.3,399.2,581.8,397.7,583.6,397.7z M581,391.1c0,1.8-1.5,3.2-3.2,3.2s-3.2-1.5-3.2-3.2c0-1.8,1.5-3.2,3.2-3.2
				S581,389.3,581,391.1z M576.2,375.5c0,0.7-0.6,1.2-1.2,1.2h-7.4c-0.7,0-1.2-0.6-1.2-1.2s0.6-1.2,1.2-1.2h7.4
				C575.7,374.2,576.2,374.8,576.2,375.5z M664,361.2h-94.3v-6.7H664V361.2z M664,346.9h-94.3v-6.7H664V346.9z M664,333.4h-94.3
				v-6.7H664V333.4z"/>
			<path class="st41" d="M584,318.6h7.4c0.7,0,1.2-0.6,1.2-1.2c0-0.7-0.6-1.2-1.2-1.2H584c-0.7,0-1.2,0.6-1.2,1.2
				C582.7,318,583.3,318.6,584,318.6z"/>
			<path class="st40" d="M579.2,378.7h90.6v-6.2h-90.6V378.7z M584,374.2h7.4c0.7,0,1.2,0.6,1.2,1.2s-0.6,1.2-1.2,1.2H584
				c-0.7,0-1.2-0.6-1.2-1.2S583.3,374.2,584,374.2z"/>
			<path class="st40" d="M579.2,419h-15.7h-0.1v13.8h0.1h106.4V419v-6.2h-90.6V419z M567.3,426.6c-0.7,0-1.2-0.6-1.2-1.2
				c0-0.7,0.6-1.2,1.2-1.2s1.2,0.6,1.2,1.2C568.5,426.1,567.9,426.6,567.3,426.6z M586.9,426.6h-16.4v-2.5h16.4V426.6z M608.6,426.6
				h-18.1v-2.5h18.1V426.6z M599.3,414.4h7.4c0.7,0,1.2,0.6,1.2,1.2c0,0.7-0.6,1.2-1.2,1.2h-7.4c-0.7,0-1.2-0.6-1.2-1.2
				C598,415,598.6,414.4,599.3,414.4z M584,414.4h7.4c0.7,0,1.2,0.6,1.2,1.2c0,0.7-0.6,1.2-1.2,1.2H584c-0.7,0-1.2-0.6-1.2-1.2
				C582.7,415,583.3,414.4,584,414.4z"/>
			<rect x="563.4" y="516.4" class="st40" width="106.4" height="9.6"/>
			<path class="st41" d="M567.6,374.2c-0.7,0-1.2,0.6-1.2,1.2s0.6,1.2,1.2,1.2h7.4c0.7,0,1.2-0.6,1.2-1.2s-0.6-1.2-1.2-1.2H567.6z"
				/>
			<path class="st41" d="M584,376.7h7.4c0.7,0,1.2-0.6,1.2-1.2s-0.6-1.2-1.2-1.2H584c-0.7,0-1.2,0.6-1.2,1.2S583.3,376.7,584,376.7z
				"/>
			<path class="st41" d="M575,414.5h-7.4c-0.7,0-1.2,0.6-1.2,1.2s0.6,1.2,1.2,1.2h7.4c0.7,0,1.2-0.6,1.2-1.2S575.7,414.5,575,414.5z
				"/>
			<path class="st41" d="M584,416.9h7.4c0.7,0,1.2-0.6,1.2-1.2c0-0.7-0.6-1.2-1.2-1.2H584c-0.7,0-1.2,0.6-1.2,1.2
				C582.7,416.3,583.3,416.9,584,416.9z"/>
			<path class="st41" d="M599.3,416.9h7.4c0.7,0,1.2-0.6,1.2-1.2c0-0.7-0.6-1.2-1.2-1.2h-7.4c-0.7,0-1.2,0.6-1.2,1.2
				C598,416.3,598.6,416.9,599.3,416.9z"/>
			<rect x="569.7" y="326.7" class="st39" width="94.3" height="6.7"/>
			<linearGradient id="SVGID_1_" gradientUnits="userSpaceOnUse" x1="569.6988" y1="330.0771" x2="663.9571" y2="330.0771">
				<stop  offset="0" style="stop-color:#FFFFFF"/>
				<stop  offset="1" style="stop-color:#000000"/>
			</linearGradient>
			<rect x="569.7" y="326.7" class="st42" width="94.3" height="6.7"/>
			<rect x="569.7" y="340.2" class="st39" width="94.3" height="6.7"/>
			<linearGradient id="SVGID_2_" gradientUnits="userSpaceOnUse" x1="569.6988" y1="343.5774" x2="663.9571" y2="343.5774">
				<stop  offset="0" style="stop-color:#00A8DE"/>
				<stop  offset="0.2" style="stop-color:#333391"/>
				<stop  offset="0.4" style="stop-color:#E91388"/>
				<stop  offset="0.6" style="stop-color:#EB2D2E"/>
				<stop  offset="0.8" style="stop-color:#FDE92B"/>
				<stop  offset="1" style="stop-color:#009E54"/>
			</linearGradient>
			<rect x="569.7" y="340.2" class="st43" width="94.3" height="6.7"/>
			<rect x="569.7" y="354.5" class="st39" width="94.3" height="6.7"/>
			<linearGradient id="SVGID_3_" gradientUnits="userSpaceOnUse" x1="569.6988" y1="357.8221" x2="663.9571" y2="357.8221">
				<stop  offset="0" style="stop-color:#FFFFFF"/>
				<stop  offset="1" style="stop-color:#0097BF"/>
			</linearGradient>
			<rect x="569.7" y="354.5" class="st44" width="94.3" height="6.7"/>
			<circle class="st41" cx="577.8" cy="391.1" r="3.2"/>
			<circle class="st41" cx="589.4" cy="391.1" r="3.2"/>
			<circle class="st41" cx="601" cy="391.1" r="3.2"/>
			<circle class="st41" cx="612.6" cy="391.1" r="3.2"/>
			<circle class="st41" cx="583.6" cy="401" r="3.2"/>
			<circle class="st41" cx="595.2" cy="401" r="3.2"/>
			<circle class="st41" cx="606.8" cy="401" r="3.2"/>
			<circle class="st41" cx="618.4" cy="401" r="3.2"/>
			<circle class="st41" cx="623.9" cy="391.1" r="3.2"/>
			<circle class="st41" cx="629.7" cy="401" r="3.2"/>
			<rect x="570.5" y="424.2" class="st41" width="16.4" height="2.5"/>
			<rect x="590.5" y="424.2" class="st41" width="18.1" height="2.5"/>
			<circle class="st41" cx="567.3" cy="425.4" r="1.2"/>
			<path class="st41" d="M677.3,329c0,0.7,0.6,1.2,1.2,1.2h51.1c0.7,0,1.2-0.6,1.2-1.2c0-0.7-0.6-1.2-1.2-1.2h-51.1
				C677.9,327.8,677.3,328.3,677.3,329z"/>
			<path class="st41" d="M729.6,334.3h-51.1c-0.7,0-1.2,0.6-1.2,1.2c0,0.7,0.6,1.2,1.2,1.2h51.1c0.7,0,1.2-0.6,1.2-1.2
				C730.9,334.9,730.3,334.3,729.6,334.3z"/>
			<path class="st41" d="M696.3,340.6h-17.8c-0.7,0-1.2,0.6-1.2,1.2s0.6,1.2,1.2,1.2h17.8c0.7,0,1.2-0.6,1.2-1.2
				S697,340.6,696.3,340.6z"/>
		</g>
	</g>
	<g id="side_x5F_toolbar">
		<g>
			<path class="st39" d="M546.7,526.5h14v-206h-14V526.5z M553.7,381.7c-1.8,0-3.2-1.5-3.2-3.2s1.5-3.2,3.2-3.2s3.2,1.5,3.2,3.2
				S555.5,381.7,553.7,381.7z M551.8,355.1h3.7c0.7,0,1.3,0.6,1.3,1.3v3.7c0,0.7-0.6,1.3-1.3,1.3h-3.7c-0.7,0-1.3-0.6-1.3-1.3v-3.7
				C550.5,355.7,551.1,355.1,551.8,355.1z M550.5,350.1v-3.7c0-0.7,0.6-1.3,1.3-1.3h3.7c0.7,0,1.3,0.6,1.3,1.3v3.7
				c0,0.7-0.6,1.3-1.3,1.3h-3.7C551.1,351.4,550.5,350.8,550.5,350.1z M550.5,326.2c0-0.7,0.6-1.3,1.3-1.3h3.7
				c0.7,0,1.3,0.6,1.3,1.3v3.7c0,0.7-0.6,1.3-1.3,1.3h-3.7c-0.7,0-1.3-0.6-1.3-1.3V326.2z M553.6,334.9c1.8,0,3.2,1.5,3.2,3.2
				c0,1.8-1.5,3.2-3.2,3.2c-1.8,0-3.2-1.5-3.2-3.2C550.4,336.4,551.8,334.9,553.6,334.9z M553.6,365.2c1.8,0,3.2,1.5,3.2,3.2
				c0,1.8-1.5,3.2-3.2,3.2c-1.8,0-3.2-1.5-3.2-3.2C550.4,366.6,551.8,365.2,553.6,365.2z"/>
			<rect x="546.7" y="314.3" class="st40" width="14" height="6.2"/>
			<circle class="st41" cx="553.6" cy="338.2" r="3.2"/>
			<circle class="st41" cx="553.6" cy="368.4" r="3.2"/>
			<circle class="st41" cx="553.7" cy="378.5" r="3.2"/>
			<path class="st41" d="M551.8,331.3h3.7c0.7,0,1.3-0.6,1.3-1.3v-3.7c0-0.7-0.6-1.3-1.3-1.3h-3.7c-0.7,0-1.3,0.6-1.3,1.3v3.7
				C550.5,330.7,551.1,331.3,551.8,331.3z"/>
			<path class="st41" d="M551.8,351.4h3.7c0.7,0,1.3-0.6,1.3-1.3v-3.7c0-0.7-0.6-1.3-1.3-1.3h-3.7c-0.7,0-1.3,0.6-1.3,1.3v3.7
				C550.5,350.8,551.1,351.4,551.8,351.4z"/>
			<path class="st41" d="M550.5,360.2c0,0.7,0.6,1.3,1.3,1.3h3.7c0.7,0,1.3-0.6,1.3-1.3v-3.7c0-0.7-0.6-1.3-1.3-1.3h-3.7
				c-0.7,0-1.3,0.6-1.3,1.3V360.2z"/>
		</g>
	</g>
	<g id="header">
		<g>
			<path class="st39" d="M261,291.7v22.6h477.7v-22.6H261z M310.6,297.2h7.4c0.7,0,1.2,0.6,1.2,1.2c0,0.7-0.6,1.2-1.2,1.2h-7.4
				c-0.7,0-1.2-0.6-1.2-1.2C309.4,297.8,309.9,297.2,310.6,297.2z M270.3,304.4c-2.6,0-4.7-2.1-4.7-4.7c0-2.6,2.1-4.7,4.7-4.7
				c2.6,0,4.7,2.1,4.7,4.7C275,302.3,272.9,304.4,270.3,304.4z M288.7,299.7h-7.4c-0.7,0-1.2-0.6-1.2-1.2c0-0.7,0.6-1.2,1.2-1.2h7.4
				c0.7,0,1.2,0.6,1.2,1.2C290,299.1,289.4,299.7,288.7,299.7z M300.4,309.3H293c-0.7,0-1.2-0.6-1.2-1.2c0-0.7,0.6-1.2,1.2-1.2h7.4
				c0.7,0,1.2,0.6,1.2,1.2C301.7,308.8,301.1,309.3,300.4,309.3z M303.4,299.7H296c-0.7,0-1.2-0.6-1.2-1.2c0-0.7,0.6-1.2,1.2-1.2
				h7.4c0.7,0,1.2,0.6,1.2,1.2C304.7,299.1,304.1,299.7,303.4,299.7z M324.7,308.1c0,0.7-0.6,1.2-1.2,1.2h-16.8
				c-0.7,0-1.2-0.6-1.2-1.2v0c0-0.7,0.6-1.2,1.2-1.2h16.8C324.1,306.9,324.7,307.4,324.7,308.1L324.7,308.1z M332.2,299.7h-7.4
				c-0.7,0-1.2-0.6-1.2-1.2c0-0.7,0.6-1.2,1.2-1.2h7.4c0.7,0,1.2,0.6,1.2,1.2C333.4,299.1,332.9,299.7,332.2,299.7z M346.6,299.7
				h-7.4c-0.7,0-1.2-0.6-1.2-1.2c0-0.7,0.6-1.2,1.2-1.2h7.4c0.7,0,1.2,0.6,1.2,1.2C347.9,299.1,347.3,299.7,346.6,299.7z
				 M361.4,299.7h-7.4c-0.7,0-1.2-0.6-1.2-1.2c0-0.7,0.6-1.2,1.2-1.2h7.4c0.7,0,1.2,0.6,1.2,1.2
				C362.6,299.1,362.1,299.7,361.4,299.7z M705.7,303.7c-1.9,0-3.4-1.5-3.4-3.4c0-1.9,1.5-3.4,3.4-3.4c1.9,0,3.4,1.5,3.4,3.4
				C709.1,302.2,707.6,303.7,705.7,303.7z M716.6,303.7c-1.9,0-3.4-1.5-3.4-3.4c0-1.9,1.5-3.4,3.4-3.4s3.4,1.5,3.4,3.4
				C720,302.2,718.5,303.7,716.6,303.7z M727.5,303.7c-1.9,0-3.4-1.5-3.4-3.4c0-1.9,1.5-3.4,3.4-3.4s3.4,1.5,3.4,3.4
				C730.9,302.2,729.3,303.7,727.5,303.7z"/>
			<circle class="st45" cx="270.3" cy="299.7" r="4.7"/>
			<circle class="st41" cx="727.5" cy="300.4" r="3.4"/>
			<circle class="st41" cx="716.6" cy="300.4" r="3.4"/>
			<circle class="st41" cx="705.7" cy="300.4" r="3.4"/>
			<path class="st41" d="M288.7,297.2h-7.4c-0.7,0-1.2,0.6-1.2,1.2c0,0.7,0.6,1.2,1.2,1.2h7.4c0.7,0,1.2-0.6,1.2-1.2
				C290,297.8,289.4,297.2,288.7,297.2z"/>
			<path class="st41" d="M303.4,297.2H296c-0.7,0-1.2,0.6-1.2,1.2c0,0.7,0.6,1.2,1.2,1.2h7.4c0.7,0,1.2-0.6,1.2-1.2
				C304.7,297.8,304.1,297.2,303.4,297.2z"/>
			<path class="st41" d="M310.6,299.7h7.4c0.7,0,1.2-0.6,1.2-1.2c0-0.7-0.6-1.2-1.2-1.2h-7.4c-0.7,0-1.2,0.6-1.2,1.2
				C309.4,299.1,309.9,299.7,310.6,299.7z"/>
			<path class="st41" d="M332.2,297.2h-7.4c-0.7,0-1.2,0.6-1.2,1.2c0,0.7,0.6,1.2,1.2,1.2h7.4c0.7,0,1.2-0.6,1.2-1.2
				C333.4,297.8,332.9,297.2,332.2,297.2z"/>
			<path class="st41" d="M300.4,306.9H293c-0.7,0-1.2,0.6-1.2,1.2c0,0.7,0.6,1.2,1.2,1.2h7.4c0.7,0,1.2-0.6,1.2-1.2
				C301.7,307.4,301.1,306.9,300.4,306.9z"/>
			<path class="st41" d="M323.5,306.9h-16.8c-0.7,0-1.2,0.6-1.2,1.2v0c0,0.7,0.6,1.2,1.2,1.2h16.8c0.7,0,1.2-0.6,1.2-1.2v0
				C324.7,307.4,324.1,306.9,323.5,306.9z"/>
			<path class="st41" d="M346.6,297.2h-7.4c-0.7,0-1.2,0.6-1.2,1.2c0,0.7,0.6,1.2,1.2,1.2h7.4c0.7,0,1.2-0.6,1.2-1.2
				C347.9,297.8,347.3,297.2,346.6,297.2z"/>
			<path class="st41" d="M361.4,297.2h-7.4c-0.7,0-1.2,0.6-1.2,1.2c0,0.7,0.6,1.2,1.2,1.2h7.4c0.7,0,1.2-0.6,1.2-1.2
				C362.6,297.8,362.1,297.2,361.4,297.2z"/>
		</g>
	</g>
</g>
<g id="computer_x5F_scene">
	<g id="scene_1_">
		<g id="legs">
			<path class="st60" d="M112.5,682.7h-5.9c-5.9,0-10.7,4.8-10.7,10.7v99c0,0,8.2,12,27.3,34.4V693.4
				C123.2,687.5,118.4,682.7,112.5,682.7z"/>
			<path class="st60" d="M889.1,682.7h-5.9c-5.9,0-10.7,4.8-10.7,10.7v138.4c21.8-24.9,27.3-33.4,27.3-33.4V693.4
				C899.8,687.5,895,682.7,889.1,682.7z"/>
		</g>
		<path id="computer_x5F_bottom_4_" class="st61" d="M446.6,674.7h104.3c1,0,1.8-0.8,1.8-1.8l-10.1-128.6c0-1-0.8-1.8-1.8-1.8
			l-87.3-1.8c-1,0-1.8,0.8-1.8,1.8l-6.9,130.3C444.8,673.9,445.6,674.7,446.6,674.7z"/>
		<path id="desk" class="st39" d="M874.1,783H121.5c-6.6,0-12-5.4-12-12v-87.2c0-6.6,5.4-12,12-12h752.6c6.6,0,12,5.4,12,12V771
			C886.1,777.6,880.7,783,874.1,783z"/>
		<rect id="desk_x5F_shadow_2_" x="109.5" y="684.6" class="st4" width="776.6" height="42.8"/>
		<path id="desktop_2_" class="st62" d="M906.9,663.5H88.7c-6.6,0-12,5.4-12,12V690c0,6.6,5.4,12,12,12h818.3c6.6,0,12-5.4,12-12
			v-14.5C918.9,668.9,913.5,663.5,906.9,663.5z"/>
		<polygon id="computer_x5F_shadow_2_" class="st4" points="550.5,646.8 446.3,646.4 448.7,599.8 546.9,599.8 		"/>
		<path id="computer_x5F_screen_2_" class="st64" d="M743.5,270.1H253.9c-8.3,0-15.1,6.8-15.1,15.1v299.5c0,8.3,6.8,15.1,15.1,15.1
			h489.6c8.3,0,15.1-6.8,15.1-15.1V285.2C758.6,276.9,751.8,270.1,743.5,270.1z M737.5,517.7c0,4.7-3.8,8.5-8.5,8.5H269.5
			c-4.7,0-8.5-3.8-8.5-8.5V300.6c0-4.7,3.8-8.5,8.5-8.5H729c4.7,0,8.5,3.8,8.5,8.5V517.7z"/>
		<path id="computer_x5F_bottom_1_" class="st63" d="M746.6,599.8H250.8c-6.6,0-12-5.4-12-12v-34.3h519.8v34.3
			C758.6,594.4,753.2,599.8,746.6,599.8z"/>
		<circle id="computer_x5F_symbol_2_" class="st64" cx="498.7" cy="576.7" r="9.6"/>
		<path class="st0" d="M821,663.5l-2.9-105.2l32.6-179.1l21.7-185.8l-113.8-52.7L607.1,60.1C493.9,23.6,370.4,37.9,268.5,99.2
			l-118.1,96.7l-27.2,366l100,61.4l-10.6,40.1h232.8l3.4-63.6H253.9c-8.3,0-15.1-6.8-15.1-15.1v-31.2V285.2
			c0-8.3,6.8-15.1,15.1-15.1h489.6c8.3,0,15.1,6.8,15.1,15.1v268.3v31.2c0,8.3-6.8,15.1-15.1,15.1H546.9l5,63.6h164.3
			c-0.2-1.3-0.4-2.6-0.4-4c0-15.5,15.8-28.1,35.3-28.1c19.5,0,35.3,12.6,35.3,28.1c0,1.4-0.1,2.7-0.4,4H821z"/>
			<rect id="masker" x="200.9" y="783" class="st0" width="618.8" height="100"/>
			<rect id="mousemask" x="637.2" y="601.6" class="st0" width="235.2" height="61.8"/>
			<path id="mouse" class="st63" d="M786,663.5c0.2-1.3,0.4-2.6,0.4-4c0-15.5-15.8-28.1-35.3-28.1s-35.3,12.6-35.3,28.1
				c0,1.4,0.1,2.7,0.4,4H786z"/>
	</g>
</g>
<g id="cup">
	<path id="glass" class="st65" d="M197.4,663.5h-48.5c-2.6,0-4.7-2-4.9-4.6l-5.5-113.9c-0.1-2.8,2.1-5.1,4.9-5.1h59.6
		c2.8,0,5,2.3,4.9,5.1l-5.5,113.9C202.1,661.4,200,663.5,197.4,663.5z"/>
	<path id="water" class="st66" d="M193.9,659.8h-41.7c-2.2,0-4.1-1.1-4.2-2.4l-2.7-62.1l0,0h55.5l0,0l-2.7,62.1
		C198,658.8,196.2,659.8,193.9,659.8z"/>
	<path id="shine" class="st67" d="M190.5,659.8H182V544.8c0-1.1,0.9-2,2-2h4.5c1.1,0,2,0.9,2,2V659.8z"/>
</g>
</svg>
