<?xml version="1.0" encoding="utf-8"?>
<!-- Generator: Adobe Illustrator 20.1.0, SVG Export Plug-In . SVG Version: 6.00 Build 0)  -->
<svg version="1.1" id="scene" xmlns="http://www.w3.org/2000/svg" xmlns:xlink="http://www.w3.org/1999/xlink" x="0px" y="0px"
	 viewBox="0 0 1000 1000" style="enable-background:new 0 0 1000 1000;" xml:space="preserve">
<style type="text/css">
	.st0{fill:#0F7173;}
	.st1{fill:#DCD5FF;}
	.st2{fill:#FFFFFF;}
	.st3{fill:#71B8FF;}
	.st4{fill:#666666;}
	.st5{fill:#CECECE;}
	.st6{fill:#F5F5F5;}
	.st7{fill:#705CFF;}
	.st8{fill:#FFE58F;}
	.st9{fill:#B2372F;}
	.st10{fill:#83FF71;}
	.st11{fill:#FF6EC5;}
	.st12{fill:#57F2EA;}
	.st13{fill:#9B9B9B;}
	.st14{fill:#626263;}
	.st15{fill:#48F972;}
	.st16{fill:#F74B4B;}
	.st17{fill:#FFBC73;}
	.st18{fill:#CB71FF;}
	.st19{fill:#719DFF;}
	.st20{fill:#71FF9C;}
	.st21{fill:#FF7171;}
	.st22{fill:#F8FF71;}
	.st23{fill:#C9C9C9;}
	.st24{fill:#777777;}
	.st25{fill:#FF0B11;}
	.st26{fill:#FCFF10;}
	.st27{fill:#00F304;}
	.st28{display:none;fill:#F2F2F2;}
	.st29{fill:#F2F2F2;}
	.st30{fill:#B1ABFF;}
	.st31{fill:#4F4F4F;}
	.st32{fill:#A3A09F;}
	.st33{fill:#7C7C7C;}
	.st34{fill:#BA926A;}
	.st35{fill:#282828;}
	.st36{fill:#EDEDED;}
	.st37{fill:#B7D9ED;}
	.st38{fill:#69C9F9;}
	.st39{opacity:0.61;fill:#FCFCFC;enable-background:new    ;}
</style>
<path id="background" class="st0" d="M500,999.4L500,999.4C225.3,999.4,0.6,774.7,0.6,500l0,0C0.6,225.3,225.3,0.6,500,0.6l0,0
	c274.7,0,499.4,224.7,499.4,499.4l0,0C999.4,774.7,774.7,999.4,500,999.4z"/>
<g id="facebook">
	<rect x="261" y="291.9" class="st1" width="476.5" height="234.1"/>
	<g id="newsfeed">
		<g id="post3">
			<rect id="post_x5F_background" x="399.9" y="433.3" class="st2" width="92.9" height="105.6"/>
			<rect id="post_x5F_content_2_" x="403.7" y="450.6" class="st3" width="85.2" height="54.1"/>
			<rect id="post_x5F_profile_2_" x="403.9" y="437" class="st4" width="10.5" height="10.5"/>
			<rect id="post_x5F_commentBox_2_" x="399.9" y="517.8" class="st5" width="92.9" height="22.4"/>
			<rect id="post_x5F_commect_2_" x="412.6" y="530" class="st6" width="76.3" height="5.6"/>
			<rect id="post_x5F_commenter_2_" x="403.7" y="530" class="st6" width="5.6" height="5.6"/>
			<circle id="post_x5F_like_2_" class="st7" cx="406.6" cy="523.5" r="2.6"/>
			<circle id="post_x5F_emote_2_" class="st8" cx="414.5" cy="523.5" r="2.6"/>
			<circle id="post_x5F_emote2_2_" class="st9" cx="422.3" cy="523.5" r="2.6"/>
			<path id="post_x5F_name_2_" class="st7" d="M476.3,442.2h-58.1c-0.6,0-1-0.5-1-1v-0.5c0-0.6,0.5-1,1-1h58.1c0.6,0,1,0.5,1,1v0.5
				C477.3,441.8,476.8,442.2,476.3,442.2z"/>
			<path id="post_x5F_subtitle_2_" class="st5" d="M431.6,447.1h-13.5c-0.6,0-1-0.5-1-1v-0.5c0-0.6,0.5-1,1-1h13.5c0.6,0,1,0.5,1,1
				v0.5C432.7,446.6,432.2,447.1,431.6,447.1z"/>
			<rect x="403.9" y="508.7" class="st5" width="12.3" height="5"/>
			<rect x="418.7" y="508.7" class="st5" width="12.3" height="5"/>
			<rect x="433.5" y="508.7" class="st5" width="12.3" height="5"/>
		</g>
		<g id="post2">
			<rect id="post_x5F_background_1_" x="399.9" y="201.7" class="st2" width="92.9" height="105.6"/>
			<rect id="post_x5F_content_3_" x="403.7" y="219" class="st10" width="85.2" height="54.1"/>
			<rect id="post_x5F_profile_15_" x="403.9" y="205.4" class="st4" width="10.5" height="10.5"/>
			<rect id="post_x5F_commentBox_3_" x="399.9" y="286.2" class="st5" width="92.9" height="22.4"/>
			<rect id="post_x5F_commect_3_" x="412.6" y="298.4" class="st6" width="76.3" height="5.6"/>
			<rect id="post_x5F_commenter_3_" x="403.7" y="298.4" class="st6" width="5.6" height="5.6"/>
			<circle id="post_x5F_like_3_" class="st7" cx="406.6" cy="291.9" r="2.6"/>
			<circle id="post_x5F_emote_3_" class="st8" cx="414.5" cy="291.9" r="2.6"/>
			<circle id="post_x5F_emote2_3_" class="st9" cx="422.3" cy="291.9" r="2.6"/>
			<path id="post_x5F_name_3_" class="st7" d="M476.3,210.6h-58.1c-0.6,0-1-0.5-1-1v-0.5c0-0.6,0.5-1,1-1h58.1c0.6,0,1,0.5,1,1v0.5
				C477.3,210.2,476.8,210.6,476.3,210.6z"/>
			<path id="post_x5F_subtitle_3_" class="st5" d="M431.6,215.5h-13.5c-0.6,0-1-0.5-1-1V214c0-0.6,0.5-1,1-1h13.5c0.6,0,1,0.5,1,1
				v0.5C432.7,215,432.2,215.5,431.6,215.5z"/>
			<rect x="403.9" y="277.1" class="st5" width="12.3" height="5"/>
			<rect x="418.7" y="277.1" class="st5" width="12.3" height="5"/>
			<rect x="433.5" y="277.1" class="st5" width="12.3" height="5"/>
		</g>
		<g id="post1">
			<rect x="399.9" y="318.2" class="st2" width="92.9" height="105.6"/>
			<rect id="post_x5F_content" x="403.7" y="335.4" class="st11" width="85.2" height="54.1"/>
			<rect id="post_x5F_profile" x="403.9" y="321.8" class="st4" width="10.5" height="10.5"/>
			<rect id="post_x5F_commentBox" x="399.9" y="402.6" class="st5" width="92.9" height="22.4"/>
			<rect id="post_x5F_commect" x="412.6" y="414.9" class="st6" width="76.3" height="5.6"/>
			<rect id="post_x5F_commenter" x="403.7" y="414.9" class="st6" width="5.6" height="5.6"/>
			<circle id="post_x5F_like" class="st7" cx="406.6" cy="408.3" r="2.6"/>
			<circle id="post_x5F_emote" class="st8" cx="414.5" cy="408.3" r="2.6"/>
			<circle id="post_x5F_emote2" class="st9" cx="422.3" cy="408.3" r="2.6"/>
			<path id="post_x5F_name" class="st7" d="M476.3,327.1h-58.1c-0.6,0-1-0.5-1-1v-0.5c0-0.6,0.5-1,1-1h58.1c0.6,0,1,0.5,1,1v0.5
				C477.3,326.6,476.8,327.1,476.3,327.1z"/>
			<path id="post_x5F_subtitle" class="st5" d="M431.6,331.9h-13.5c-0.6,0-1-0.5-1-1v-0.5c0-0.6,0.5-1,1-1h13.5c0.6,0,1,0.5,1,1v0.5
				C432.7,331.4,432.2,331.9,431.6,331.9z"/>
			<rect x="403.9" y="393.5" class="st5" width="12.3" height="5"/>
			<rect x="418.7" y="393.5" class="st5" width="12.3" height="5"/>
			<rect x="433.5" y="393.5" class="st5" width="12.3" height="5"/>
		</g>
	</g>
	<g id="advertisements">
		<rect x="500.6" y="340.6" class="st2" width="81.6" height="82.9"/>
		<rect x="505.3" y="354.2" class="st12" width="72.5" height="42.3"/>
		<path class="st5" d="M534,349h-27.7c-0.6,0-1.1-0.5-1.1-1.1v-0.5c0-0.6,0.5-1.1,1.1-1.1H534c0.6,0,1.1,0.5,1.1,1.1v0.5
			C535.1,348.6,534.6,349,534,349z"/>
		<path class="st7" d="M552.3,402.7h-46c-0.6,0-1.1-0.5-1.1-1.1v-0.5c0-0.6,0.5-1.1,1.1-1.1h46c0.6,0,1.1,0.5,1.1,1.1v0.5
			C553.4,402.3,552.9,402.7,552.3,402.7z"/>
		<path class="st7" d="M576.7,349h-14c-0.6,0-1.1-0.5-1.1-1.1v-0.5c0-0.6,0.5-1.1,1.1-1.1h14c0.6,0,1.1,0.5,1.1,1.1v0.5
			C577.8,348.6,577.3,349,576.7,349z"/>
		<path class="st5" d="M576.7,411.1h-70.4c-0.6,0-1.1-0.5-1.1-1.1v-0.5c0-0.6,0.5-1.1,1.1-1.1h70.4c0.6,0,1.1,0.5,1.1,1.1v0.5
			C577.8,410.6,577.3,411.1,576.7,411.1z"/>
		<path class="st7" d="M519.3,406.9h-12.9c-0.6,0-1.1-0.5-1.1-1.1v-0.5c0-0.6,0.5-1.1,1.1-1.1h12.9c0.6,0,1.1,0.5,1.1,1.1v0.5
			C520.3,406.4,519.9,406.9,519.3,406.9z"/>
		<path class="st5" d="M540.3,416.2h-33.9c-0.6,0-1.1-0.5-1.1-1.1v-0.5c0-0.6,0.5-1.1,1.1-1.1h33.9c0.6,0,1.1,0.5,1.1,1.1v0.5
			C541.3,415.7,540.9,416.2,540.3,416.2z"/>
		<rect x="500.7" y="429.2" class="st2" width="81.6" height="16.1"/>
		<path class="st7" d="M576.7,436.3h-46c-0.6,0-1.1-0.5-1.1-1.1v-0.5c0-0.6,0.5-1.1,1.1-1.1h46c0.6,0,1.1,0.5,1.1,1.1v0.5
			C577.8,435.8,577.3,436.3,576.7,436.3z"/>
		<path class="st7" d="M576.7,441.4h-70.4c-0.6,0-1.1-0.5-1.1-1.1v-0.5c0-0.6,0.5-1.1,1.1-1.1h70.4c0.6,0,1.1,0.5,1.1,1.1v0.5
			C577.8,440.9,577.3,441.4,576.7,441.4z"/>
		<path class="st5" d="M524.5,436.3h-18.2c-0.6,0-1.1-0.5-1.1-1.1v-0.5c0-0.6,0.5-1.1,1.1-1.1h18.2c0.6,0,1.1,0.5,1.1,1.1v0.5
			C525.6,435.8,525.1,436.3,524.5,436.3z"/>
		<path class="st13" d="M576.7,452.1h-70.4c-0.6,0-1.1-0.5-1.1-1.1v-0.5c0-0.6,0.5-1.1,1.1-1.1h70.4c0.6,0,1.1,0.5,1.1,1.1v0.5
			C577.8,451.6,577.3,452.1,576.7,452.1z"/>
		<path class="st13" d="M526.6,458.1h-20.3c-0.6,0-1.1-0.5-1.1-1.1v-0.5c0-0.6,0.5-1.1,1.1-1.1h20.3c0.6,0,1.1,0.5,1.1,1.1v0.5
			C527.7,457.6,527.2,458.1,526.6,458.1z"/>
		<path class="st13" d="M518.2,464.3h-11.8c-0.6,0-1.1-0.5-1.1-1.1v-0.5c0-0.6,0.5-1.1,1.1-1.1h11.8c0.6,0,1.1,0.5,1.1,1.1v0.5
			C519.2,463.8,518.8,464.3,518.2,464.3z"/>
	</g>
	<g id="chats">
		<rect x="539.3" y="514.7" class="st2" width="55.8" height="11.2"/>
		<path class="st14" d="M549.7,522.1h24.9c0.8,0,1.4-0.6,1.4-1.4V520c0-0.8-0.6-1.4-1.4-1.4h-24.9c-0.8,0-1.4,0.6-1.4,1.4v0.7
			C548.3,521.4,549,522.1,549.7,522.1z"/>
		<path class="st15" d="M544.3,522.1h0.7c0.8,0,1.4-0.6,1.4-1.4V520c0-0.8-0.6-1.4-1.4-1.4h-0.7c-0.8,0-1.4,0.6-1.4,1.4v0.7
			C542.9,521.4,543.6,522.1,544.3,522.1z"/>
		<rect x="604.2" y="514.7" class="st2" width="55.8" height="11.2"/>
		<path class="st14" d="M614.7,522.1h24.9c0.8,0,1.4-0.6,1.4-1.4V520c0-0.8-0.6-1.4-1.4-1.4h-24.9c-0.8,0-1.4,0.6-1.4,1.4v0.7
			C613.3,521.4,613.9,522.1,614.7,522.1z"/>
		<path class="st16" d="M609.3,522.1h0.7c0.8,0,1.4-0.6,1.4-1.4V520c0-0.8-0.6-1.4-1.4-1.4h-0.7c-0.8,0-1.4,0.6-1.4,1.4v0.7
			C607.9,521.4,608.5,522.1,609.3,522.1z"/>
	</g>
	<g id="sidebar">
		<rect x="637.3" y="332.1" class="st1" width="51.5" height="147.6"/>
		<rect id="post_x5F_profile_13_" x="677.3" y="345.2" class="st12" width="10.5" height="10.5"/>
		<rect id="post_x5F_profile_12_" x="677.3" y="360.1" class="st11" width="10.5" height="10.5"/>
		<rect id="post_x5F_profile_11_" x="677.3" y="375.3" class="st10" width="10.5" height="10.5"/>
		<rect id="post_x5F_profile_10_" x="677.3" y="390.5" class="st7" width="10.5" height="10.5"/>
		<rect id="post_x5F_profile_8_" x="677.3" y="405.4" class="st17" width="10.5" height="10.5"/>
		<rect id="post_x5F_profile_7_" x="677.3" y="420.6" class="st18" width="10.5" height="10.5"/>
		<rect id="post_x5F_profile_6_" x="677.3" y="435.8" class="st19" width="10.5" height="10.5"/>
		<rect id="post_x5F_profile_5_" x="677.3" y="450.7" class="st20" width="10.5" height="10.5"/>
		<rect id="post_x5F_profile_4_" x="677.3" y="465.9" class="st21" width="10.5" height="10.5"/>
		<rect id="post_x5F_profile_3_" x="677.3" y="481.1" class="st22" width="10.5" height="10.5"/>
		<rect id="post_x5F_profile_1_" x="677.3" y="495.9" class="st11" width="10.5" height="10.5"/>
		<rect x="672.8" y="514.7" class="st2" width="64.6" height="12.2"/>
		<circle class="st23" cx="680.1" cy="520.8" r="2.5"/>
		<path class="st13" d="M728,349.4h-33.3c-0.7,0-1.3-0.6-1.3-1.3v-0.7c0-0.7,0.6-1.3,1.3-1.3H728c0.7,0,1.3,0.6,1.3,1.3v0.7
			C729.3,348.8,728.7,349.4,728,349.4z"/>
		<path class="st13" d="M728,367h-33.3c-0.7,0-1.3-0.6-1.3-1.3V365c0-0.7,0.6-1.3,1.3-1.3H728c0.7,0,1.3,0.6,1.3,1.3v0.7
			C729.3,366.4,728.7,367,728,367z"/>
		<path class="st13" d="M717.9,382.2h-23.1c-0.7,0-1.3-0.6-1.3-1.3v-0.7c0-0.7,0.6-1.3,1.3-1.3h23.1c0.7,0,1.3,0.6,1.3,1.3v0.7
			C719.2,381.6,718.6,382.2,717.9,382.2z"/>
		<path class="st13" d="M728,412.3h-33.3c-0.7,0-1.3-0.6-1.3-1.3v-0.7c0-0.7,0.6-1.3,1.3-1.3H728c0.7,0,1.3,0.6,1.3,1.3v0.7
			C729.3,411.7,728.7,412.3,728,412.3z"/>
		<path class="st13" d="M728,442.7h-33.3c-0.7,0-1.3-0.6-1.3-1.3v-0.7c0-0.7,0.6-1.3,1.3-1.3H728c0.7,0,1.3,0.6,1.3,1.3v0.7
			C729.3,442.1,728.7,442.7,728,442.7z"/>
		<path class="st13" d="M727.3,472H694c-0.7,0-1.3-0.6-1.3-1.3V470c0-0.7,0.6-1.3,1.3-1.3h33.3c0.7,0,1.3,0.6,1.3,1.3v0.7
			C728.6,471.4,728.1,472,727.3,472z"/>
		<path class="st13" d="M727.3,502.9H694c-0.7,0-1.3-0.6-1.3-1.3v-0.7c0-0.7,0.6-1.3,1.3-1.3h33.3c0.7,0,1.3,0.6,1.3,1.3v0.7
			C728.6,502.3,728.1,502.9,727.3,502.9z"/>
		<path class="st13" d="M710.1,354.4h-15.3c-0.7,0-1.3-0.6-1.3-1.3v-0.7c0-0.7,0.6-1.3,1.3-1.3h15.3c0.7,0,1.3,0.6,1.3,1.3v0.7
			C711.4,353.8,710.8,354.4,710.1,354.4z"/>
		<path class="st13" d="M728,394.9h-33.3c-0.7,0-1.3-0.6-1.3-1.3v-0.7c0-0.7,0.6-1.3,1.3-1.3H728c0.7,0,1.3,0.6,1.3,1.3v0.7
			C729.3,394.3,728.7,394.9,728,394.9z"/>
		<path class="st13" d="M716.7,399.9h-21.9c-0.7,0-1.3-0.6-1.3-1.3v-0.7c0-0.7,0.6-1.3,1.3-1.3h21.9c0.7,0,1.3,0.6,1.3,1.3v0.7
			C718,399.3,717.4,399.9,716.7,399.9z"/>
		<path class="st13" d="M728,425h-33.3c-0.7,0-1.3-0.6-1.3-1.3V423c0-0.7,0.6-1.3,1.3-1.3H728c0.7,0,1.3,0.6,1.3,1.3v0.7
			C729.3,424.4,728.7,425,728,425z"/>
		<path class="st13" d="M728,430h-33.3c-0.7,0-1.3-0.6-1.3-1.3V428c0-0.7,0.6-1.3,1.3-1.3H728c0.7,0,1.3,0.6,1.3,1.3v0.7
			C729.3,429.4,728.7,430,728,430z"/>
		<path class="st13" d="M728,455h-33.3c-0.7,0-1.3-0.6-1.3-1.3V453c0-0.7,0.6-1.3,1.3-1.3H728c0.7,0,1.3,0.6,1.3,1.3v0.7
			C729.3,454.4,728.7,455,728,455z"/>
		<path class="st13" d="M706.1,460.1h-11.4c-0.7,0-1.3-0.6-1.3-1.3v-0.7c0-0.7,0.6-1.3,1.3-1.3h11.4c0.7,0,1.3,0.6,1.3,1.3v0.7
			C707.4,459.5,706.8,460.1,706.1,460.1z"/>
		<path class="st13" d="M728,485.4h-33.3c-0.7,0-1.3-0.6-1.3-1.3v-0.7c0-0.7,0.6-1.3,1.3-1.3H728c0.7,0,1.3,0.6,1.3,1.3v0.7
			C729.3,484.8,728.7,485.4,728,485.4z"/>
		<path class="st13" d="M713.8,490.5h-19.1c-0.7,0-1.3-0.6-1.3-1.3v-0.7c0-0.7,0.6-1.3,1.3-1.3h19.1c0.7,0,1.3,0.6,1.3,1.3v0.7
			C715.1,489.9,714.5,490.5,713.8,490.5z"/>
	</g>
	<g id="browser_x5F_container">
		<rect id="browser_x5F_bar" x="261" y="292.1" class="st24" width="476.5" height="31.1"/>
		<path class="st2" d="M584.7,314.7H303.5c-1.6,0-2.9-1.3-2.9-2.9v-3.6c0-1.6,1.3-2.9,2.9-2.9h281.3c1.6,0,2.9,1.3,2.9,2.9v3.6
			C587.7,313.4,586.3,314.7,584.7,314.7z"/>
		<circle id="exit_x5F_button" class="st25" cx="726.3" cy="305.3" r="4.6"/>
		<circle id="minimize_x5F_button" class="st26" cx="713.2" cy="305.3" r="4.6"/>
		<circle id="maximize_x5F_button" class="st27" cx="700.1" cy="305.3" r="4.6"/>
		<circle id="refresh_x5F_button" class="st2" cx="290.1" cy="310" r="4.7"/>
		<circle id="back_x5F_button" class="st2" cx="275" cy="310" r="4.7"/>
		<path id="search_x5F_bar" class="st2" d="M665.8,314.7H599c-1.6,0-2.9-1.3-2.9-2.9v-3.6c0-1.6,1.3-2.9,2.9-2.9h66.9
			c1.6,0,2.9,1.3,2.9,2.9v3.6C668.8,313.4,667.5,314.7,665.8,314.7z"/>
		<rect x="360.4" y="330.2" class="st28" width="277.7" height="197.3"/>
		<rect id="facebook_x5F_header" x="261" y="323.1" class="st7" width="476.5" height="16.9"/>
		<path id="facebook_x5F_button" class="st29" d="M326.4,336.4l-2.1,0.1c-2.1,0.1-3.8-1.5-3.9-3.6l-0.1-2.1
			c-0.1-2.1,1.5-3.8,3.6-3.9l2.1-0.1c2.1-0.1,3.8,1.5,3.9,3.6l0.1,2.1C330,334.5,328.4,336.3,326.4,336.4z"/>
		<path id="facebook_x5F_button1" class="st30" d="M633.4,336.3h-2c-2.1,0-3.8-1.7-3.8-3.8v-2c0-2.1,1.7-3.8,3.8-3.8h2
			c2.1,0,3.8,1.7,3.8,3.8v2C637.2,334.6,635.5,336.3,633.4,336.3z"/>
		<path id="fb_x5F_button3" class="st30" d="M619.3,336.3h-2c-2.1,0-3.8-1.7-3.8-3.8v-2c0-2.1,1.7-3.8,3.8-3.8h2
			c2.1,0,3.8,1.7,3.8,3.8v2C623.1,334.6,621.4,336.3,619.3,336.3z"/>
		<path id="fb_x5F_button2" class="st30" d="M647.5,336.6h-2c-2.1,0-3.8-1.7-3.8-3.8v-2c0-2.1,1.7-3.8,3.8-3.8h2
			c2.1,0,3.8,1.7,3.8,3.8v2C651.4,334.8,649.6,336.6,647.5,336.6z"/>
		<path id="fb_x5F_searchbar" class="st29" d="M338.8,326.9h118.7c2.1,0,3.7,1.7,3.7,3.8v1.9c0,2.1-1.7,3.8-3.7,3.8H338.8
			c-2.1,0-3.8-1.7-3.8-3.8v-1.9C335,328.6,336.7,326.9,338.8,326.9z"/>
		<path class="st16" d="M650.2,330.9h1c1.1,0,2-0.9,2-2v-1c0-1.1-0.9-2-2-2h-1c-1.1,0-2,0.9-2,2v1
			C648.2,330,649.1,330.9,650.2,330.9z"/>
	</g>
</g>
<g id="computer_x5F_scene">
	<g id="scene_1_">
		<g id="legs">
			<path class="st31" d="M112.5,682.7h-5.9c-5.9,0-10.7,4.8-10.7,10.7v99c0,0,8.2,12,27.3,34.4V693.4
				C123.2,687.5,118.4,682.7,112.5,682.7z"/>
			<path class="st31" d="M889.1,682.7h-5.9c-5.9,0-10.7,4.8-10.7,10.7v138.4c21.8-24.9,27.3-33.4,27.3-33.4v-105
				C899.8,687.5,895,682.7,889.1,682.7z"/>
		</g>
		<path id="computer_x5F_bottom_4_" class="st32" d="M446.6,674.7h104.3c1,0,1.8-0.8,1.8-1.8l-10.1-128.6c0-1-0.8-1.8-1.8-1.8
			l-87.3-1.8c-1,0-1.8,0.8-1.8,1.8l-6.9,130.3C444.8,673.9,445.6,674.7,446.6,674.7z"/>
		<path id="desk" class="st33" d="M874.1,783H121.5c-6.6,0-12-5.4-12-12v-87.2c0-6.6,5.4-12,12-12h752.6c6.6,0,12,5.4,12,12V771
			C886.1,777.6,880.7,783,874.1,783z"/>
		<rect id="desk_x5F_shadow_2_" x="109.5" y="684.6" class="st4" width="776.6" height="42.8"/>
		<path id="desktop_2_" class="st34" d="M906.9,663.5H88.7c-6.6,0-12,5.4-12,12V690c0,6.6,5.4,12,12,12H907c6.6,0,12-5.4,12-12
			v-14.5C918.9,668.9,913.5,663.5,906.9,663.5z"/>
		<polygon id="computer_x5F_shadow_2_" class="st4" points="550.5,646.8 446.3,646.4 448.7,599.8 546.9,599.8 		"/>
		<path id="computer_x5F_screen_2_" class="st35" d="M743.5,270.1H253.9c-8.3,0-15.1,6.8-15.1,15.1v299.5c0,8.3,6.8,15.1,15.1,15.1
			h489.6c8.3,0,15.1-6.8,15.1-15.1V285.2C758.6,276.9,751.8,270.1,743.5,270.1z M737.5,517.7c0,4.7-3.8,8.5-8.5,8.5H269.5
			c-4.7,0-8.5-3.8-8.5-8.5V300.6c0-4.7,3.8-8.5,8.5-8.5H729c4.7,0,8.5,3.8,8.5,8.5V517.7z"/>
		<path id="computer_x5F_bottom_1_" class="st36" d="M746.6,599.8H250.8c-6.6,0-12-5.4-12-12v-34.3h519.8v34.3
			C758.6,594.4,753.2,599.8,746.6,599.8z"/>
		<circle id="computer_x5F_symbol_2_" class="st35" cx="498.7" cy="576.7" r="9.6"/>
		<path class="st0" d="M821,663.5l-2.9-105.2l32.6-179.1l21.7-185.8l-113.8-52.7L607.1,60.1C493.9,23.6,370.4,37.9,268.5,99.2
			l-118.1,96.7l-27.2,366l100,61.4l-10.6,40.1h232.8l3.4-63.6H253.9c-8.3,0-15.1-6.8-15.1-15.1v-31.2V285.2
			c0-8.3,6.8-15.1,15.1-15.1h489.6c8.3,0,15.1,6.8,15.1,15.1v268.3v31.2c0,8.3-6.8,15.1-15.1,15.1H546.9l5,63.6h164.3
			c-0.2-1.3-0.4-2.6-0.4-4c0-15.5,15.8-28.1,35.3-28.1s35.3,12.6,35.3,28.1c0,1.4-0.1,2.7-0.4,4h35L821,663.5L821,663.5z"/>
		<rect id="masker" x="200.9" y="783" class="st0" width="618.8" height="100"/>
		<rect id="mousemask" x="637.2" y="601.6" class="st0" width="235.2" height="61.8"/>
		<path id="mouse" class="st36" d="M786,663.5c0.2-1.3,0.4-2.6,0.4-4c0-15.5-15.8-28.1-35.3-28.1s-35.3,12.6-35.3,28.1
			c0,1.4,0.1,2.7,0.4,4H786z"/>
	</g>
</g>
<g id="cup">
	<path id="glass" class="st37" d="M197.4,663.5h-48.5c-2.6,0-4.7-2-4.9-4.6L138.5,545c-0.1-2.8,2.1-5.1,4.9-5.1H203
		c2.8,0,5,2.3,4.9,5.1l-5.5,113.9C202.1,661.4,200,663.5,197.4,663.5z"/>
	<path id="water_1_" class="st38" d="M200.9,558l-2.6,98c-0.1,2.2-1.9,3.8-4.2,3.8h-41.7c-2.2,0-4.1-1.7-4.2-3.8l-2.7-98l0,0"/>
	<path id="shine" class="st39" d="M190.5,659.8H182v-115c0-1.1,0.9-2,2-2h4.5c1.1,0,2,0.9,2,2V659.8z"/>
</g>
</svg>
