<?xml version="1.0" encoding="utf-8"?>
<!-- Generator: Adobe Illustrator 20.1.0, SVG Export Plug-In . SVG Version: 6.00 Build 0)  -->
<svg version="1.1" id="Layer_1" xmlns="http://www.w3.org/2000/svg" xmlns:xlink="http://www.w3.org/1999/xlink" x="0px" y="0px"
	 viewBox="0 0 1000 388.5" style="enable-background:new 0 0 1000 388.5;" xml:space="preserve">
<style type="text/css">
	.st0{fill:#FFF;}
</style>
<g>
	<path class="st0" d="M33.4,118.2c0.2-0.4,0.3-0.8,0.3-1.2v-0.1c-0.3,0.2-0.4,0.4-0.4,0.7C33.2,117.8,33.3,118,33.4,118.2z"/>
	<path class="st0" d="M45.2,211.1c0-0.4,0-0.5-0.1-0.5L45.2,211.1z"/>
	<path class="st0" d="M799.8,110.4c4-2.9,6.1-5.1,6.1-6.6c-0.6-3.9-1.8-5.8-3.6-5.8h-1.4c-5.8,2.1-8.8,4.7-8.8,7.8v1.5l5.7,3.2
		H799.8z"/>
	<path class="st0" d="M855.7,105.4c0.9-0.1,1.7-0.2,2.4-0.3v-3.7L855.7,105.4z"/>
	<path class="st0" d="M986.2,129.8c-1.7,0-3.1,1.4-4.1,4.1c-1.1,1.8-2.7,4.6-4.7,8.3c-2,3.8-6.9,12.3-14.5,25.6
		c-7.6,13.9-12.9,20.9-16,20.9c-0.3,0-0.4-2.6-0.4-7.8c1-4.6,2.3-8.8,4-12.7c0.3-5.4,2.7-13.1,7.4-23.2c0-0.5,0-1-0.1-1.4h0.1l1.3-4
		c0-1.6-0.4-2.5-1.1-2.9c0-1.5,0.8-2.7,2.4-3.8c0-1.4-0.1-2.2-0.3-2.6c3.2-9.3,4.8-15.7,4.8-19l-5.2-6.7l-10.6-1.8
		c-10.2,3.5-17.1,7.5-20.9,12c-7.8,8.2-12.4,15.4-14,21.6c0,0.3-1.5,3.8-4.5,10.6c-1.2,2.8-2.2,5.1-3,6.9c1.1-4.8,1.9-9.3,2.6-13.5
		c0.7-6.9,1.2-11.3,1.6-13.3v-14.4c-0.7-1.5-1.7-2.3-2.8-2.3H908c-1.8,0-3,0.1-3.7,0.3c-4.3,0.8-7.5,1.3-9.4,1.3
		c-0.5,5.3-1.1,8-1.6,8.3c-0.4,4.1-0.9,6.7-1.5,7.6c0,0.1,0,0.1,0,0.2l-7.3,11.8c-5.3,6.6-13.5,15.3-24.5,26.2
		c1.5-7.6,2.7-17.3,3.8-29.1c1.7-9.2,2.5-16.1,2.5-20.8c0-2.3-0.2-4.1-0.6-5.3c-1.3-3.6-2.5-5.5-3.8-5.8c-0.5,0-1.1-0.1-1.7-0.1
		c-0.6,0-1.2,0-1.9,0.1v1.2c-3.9,0-5.8,1.3-5.8,3.8v0.7c1.1,2.7,1.6,6.2,1.6,10.4c-1.2,4.4-2.2,10.9-3.1,19.3
		c-2.5,5.8-7.5,11.5-15,16.9c0-0.9-0.2-2.5-0.3-4.7c0.5-6.2,1.1-11,1.8-14.3c0.7-3.3,2.1-6.9,4.4-10.6c2.3-3.8,4.7-6.2,7.5-7.2
		c2.7-1,4.1-2.2,4.1-3.5c0-2.4-0.5-4.3-1.5-5.7c-0.7-1-1.5-1.5-2.3-1.5c-0.4,0-0.7,0.1-1.1,0.3c-4.7,0.3-10.5,4.7-17.1,13.3
		c-4.5,6-6.7,9.5-6.7,10.4c-3,4.8-5,9.7-5.9,14.6c-2.5,4.4-4.9,8.3-7.2,11.5c-6.7,11.5-12.2,18-16.6,19.6h-0.4
		c-1.2-3.4-1.8-5.1-1.8-5l1.1-6.3c0-0.2-0.1-1.4-0.3-3.5l2.2-12.3l0.9,1.8c0.1,0,1.6-9.4,4.5-28.2v-1.7c0-2.5-2-4.2-6.1-4.9
		c-2.4,0.9-3.7,1.4-3.8,1.4l-2.5-0.5c-0.9,1.6-1.9,4.3-3,8c-0.9,0.6-1.7,1.6-2.6,3c-2.3,3.6-5.7,8-10.1,13.2
		c-4.4,5.1-9,10.9-13.8,17.4c-5.3,4.8-7.9,7.5-7.9,8.1c-6,5.6-10.6,9.3-13.9,11.1c-0.4-0.7-1.2-3.2-2.5-7.6
		c-2.1-7.3-3.6-10.9-4.6-10.9c-1.5-3-3.1-5.3-4.7-6.9c-4.8-3.5-7.3-7.8-7.3-13c0-4,2.3-7.8,6.8-11.5c5-2.8,8.2-4.2,9.7-4.2h5.3
		c4.3-0.3,6.4-0.8,6.4-1.6c4.9-1.9,7.4-5.2,7.4-9.8c0-0.9-0.9-2.9-2.6-6c-1.8-2.2-3.8-3.6-5.7-4.2c-9.4,0.3-14,0.7-14,1.3
		c-7.2,1.9-15.5,7-25.1,15.2c-1.8,2.8-3.1,5.2-4.1,7.3h-0.1c-3.7,8.5-8.4,16.7-14.1,24.5c-5.6,7.8-10.6,14.5-14.9,20
		c-4.3,5.5-9.8,10.5-16.4,15c-2.9,2-6.1,3-9.6,3c-4.5,0-9.5-1.6-15-4.9c-4.1-2.9-6.2-7.2-6.2-12.7l3.9-19.5c2-4.1,4.6-10.1,8-17.9
		c0-1,1.8-1.6,5.5-1.8c5,0,11.2-2,18.5-6c3.2-1.6,5.8-4.5,7.7-8.6c2.4-5.4,3.6-8.6,3.6-9.6v-1.1c-2.5-6.7-6.7-10.1-12.8-10.1h-4.9
		c-10.9,1.8-16.4,3.5-16.4,5.1c-0.6,0.5-4,4.2-10.2,11.3c-1.4,2.6-2.2,4-2.4,4c-4.3,6.8-7.2,12.6-8.6,17.3c-1.2,4-2.2,6.3-2.8,7
		c-1.1,4.6-2.1,7.5-3,8.6c-1.1,8.6-1.6,15-1.6,19.2v1.6c2.6,9.4,5.2,15.1,7.8,17.1c4.5,3.7,8.2,6.4,11,8c2,0,4.3,0.6,6.9,1.9
		l1.8-0.3h0.3c10.6,0,18.9-2.3,24.7-6.8c5.8-4.5,10-8.4,12.7-11.5c2.7-3.1,7.8-9.5,15.3-19.2c7.5-9.6,11.3-15.2,11.3-16.7
		c0.1-0.1,0.1-0.3,0.2-0.4c0.7,1.6,1.6,3.3,2.7,4.8c5.4,3.2,9.2,8,11.5,14.6c1.8,2.2,3.5,4.9,5,8c2.7,6.5,4,11.1,4,14
		c-0.1,0.3-0.7,0.9-1.8,1.8c-8.7,6.1-13,9.3-13.1,9.4c-3,1.4-8.4,6.4-16.3,14.9c-5.5,7.1-9.9,12.9-13.1,17.3
		c-1.8,2.9-3.7,6.3-5.7,10.1c-4.6,0.2-9.4,0.4-14.6,0.6l0.1,1.1c4.5-0.1,9.2-0.2,13.9-0.4c-0.2,0.4-0.4,0.8-0.7,1.3
		c-3.6,0.2-7.6,0.5-11.9,0.8c-17.9,0.3-27.6,0.1-29.1-0.6c0.7-0.1,1.8-0.3,3.3-0.7l-1.2-0.6c-17.7,0.4-34.1,0.6-49.1,0.4
		c-57.4-0.1-95.5-1-114.3-2.7c-29.2-1.8-55.9-3.9-80-6.5c-34-4.7-54.7-7.1-62.1-7.4c-5.2-0.8-10.2-1.5-14.9-2.2
		c3.9-9,8.4-19.4,13.5-31.1c2.9-8.5,4.9-13.2,5.9-14.1l5.7-15.4c0.5-1,1-2.1,1.4-3.1l0.2,2.1c0.8,6.2,2.9,11.5,6.3,15.8
		c2.2,4.7,7.5,7,15.7,7h5.1c7.6-2.5,11.4-4.6,11.4-6.2c5.6-3.6,9.7-9.6,12.3-18c0.8-4.7,1.3-13.1,1.3-25.3v2.4
		c0.4,0.1,1.1,0.2,2,0.2c1.6,0,4-0.2,7.1-0.7c2.9-0.4,5.4-1.2,7.3-2.3c-0.3,9.8-0.6,15.9-0.9,18.2c0.4,2.7,0.5,4.1,0.5,4.3l-0.8,1.6
		c0,1.5-0.5,11.6-1.5,30.3l11.6-0.5c3.2-2.8,5.7-8.8,7.7-18.2c1.4-3.1,4.3-8.6,8.8-16.6c4.8-9.3,8.4-16.7,10.9-22.2
		c2.6-5.2,6.8-9.6,12.6-13.3c4.8-4.5,7.7-6.7,8.6-6.7c1.1,0,2,0.8,2.4,2.5c-0.3,1.1-0.5,2.1-0.5,2.9c-1.8,1.9-2.9,4.3-3.4,7
		c-1.6,6.7-5.2,17.1-10.7,31.1c-1.1,0-2.3,6.1-3.4,18.2c0.6,1.1,0.9,1.8,0.9,2.2c0,0.6-0.4,1.6-1.1,3c0,5.2,0.5,8.8,1.6,10.6
		c3.5,6.9,6.8,10.3,9.9,10.3h1.3c2.8,0,6.2-2.8,10.4-8.5c4.1-3.4,10.6-13.7,19.5-30.7c2.4-4,4.7-7.9,6.8-11.7
		c-0.1,2.9-0.1,5.7-0.2,8.5c-0.4,17.8-1.2,32.9-2.3,45.4c-2.1,12.3-3.2,21.1-3.2,26.4l2.4,3.7h1.6c0.6,0,1.5-0.5,2.5-1.5
		c2.9,0,5.7-3.5,8.3-10.5c1.3-5.6,2.3-14.5,3-26.8c0.4-7.2,0.8-11.1,1.3-11.9c2.2-16.8,3.2-26.6,3.2-29.3l8.1-64.8
		c1.9-8.4,5.1-14.6,9.4-18.9c4-4.3,9.6-8.2,16.8-11.7c7.4-3.3,13.7-4.9,18.8-4.9h0.9c3.1,0,5.2,0.7,6.2,2c4.5,6.2,6.8,10.5,6.8,12.7
		c2.8,7.5,4.2,15.5,4.2,24.1c-0.4,6.1-1,12.2-1.7,18.3c0,0.6,0,0.9,0.1,1c-0.3,1-0.6,2.7-1,5.1c-2.2,1.3-6.2,3.9-12,7.8
		c-2.2,0-10.9,7.4-26.2,22.2c-7.4,8.6-12.3,15.4-14.7,20.3c-1.1,0.8-2.1,2.3-3.2,4.4c-2.8,5.1-4.6,8.9-5.4,11.5
		c-4.8,19.3-7.3,31.8-7.3,37.7v2.5c0,1.9,0.1,3.1,0.3,3.6c0.8,6.1,3.3,9.1,7.6,9.1c0.2,0,0.7-0.1,1.4-0.2c1.8,0.1,3.1,0.2,3.7,0.2
		c2,0,3-0.2,3-0.7c4-0.7,6.1-1.1,6.1-1.2c2.5,0,6.2-2.7,10.8-8c1.4,0,2.7-1.3,4-3.8c4.4-4.1,8-8.1,10.8-11.8c2.6-2.2,4.3-4.5,5-7.1
		c3-3.9,5.7-8.9,8-14.8c2.9-5.1,5.5-11.3,7.5-18.6c2.8-7.6,5.8-17.5,9.1-29.4c2.4-7.8,4.5-15.1,6.1-22.1
		c16.9-7.3,28.1-11.8,33.6-13.5c4.4-0.9,7.1-1.9,8-3.2v-1.6l-1.4-2.3c-3.1,0.5-5.2,1-6.5,1.6c-7.2,1-11.8,2.1-13.9,3.2
		c-13.1,5.6-19.6,8.4-19.6,8.4c0.7-10.5,1.4-15.7,2.2-15.7V82.6c0-0.4,0.1-1.3,0.4-3c-0.4-2.5-1.2-8.1-2.3-16.8
		c-2.6-10.4-4.9-15.6-6.9-15.6l0.2-0.1c-1-1.6-2.4-3.6-4.4-5.8c-1.1-2-2.7-3.4-5-4.2c-1.5-1.5-4.4-2.2-8.6-2.2
		c-2.7-0.8-5.4-1.3-8-1.3c-5,0.7-7.5,1.3-7.5,1.6c-2.4,0.2-4,0.5-4.8,0.9c-7.1,1.5-13.6,4.4-19.5,8.9c-1.8,2-3.3,3-4.2,3
		c-1.2,0.9-4.6,3.9-10.2,9c0,1.2-0.8-0.6-2.5-5.4l-1.6-0.7h1.2l2.2-1.5l-0.3-2.1c0.3-1.3,0.4-2.1,0.4-2.5c-0.2-1.4-0.3-2.4-0.3-3
		c0-0.5,0.4-2.9,1.1-7.3v-0.6c0-1.3-0.7-2.1-2.2-2.4h-1.3c-1.8,1-3.1,1.5-4.1,1.5c-2.5,0-4.3,0.3-5.2,0.9c0,1.1-0.4,1.6-1.1,1.6
		c-0.3,0-0.7-0.1-1.1-0.3c-2,0-3.2,5.2-3.4,15.6c-1,11.4-1.7,27.4-2.1,48.1c-0.2,11.2-0.5,21.9-0.7,32.2c-0.4,0.6-0.8,1.4-1.2,2.4
		c-1.1,1.8-2.7,4.6-4.7,8.3c-2,3.8-6.9,12.3-14.5,25.6c-7.6,13.9-12.9,20.9-16,20.9c-0.3,0-0.4-2.6-0.4-7.8c1-4.6,2.3-8.8,4-12.7
		c0.3-5.4,2.7-13.1,7.4-23.2c0-0.5,0-1-0.1-1.4h0.1l1.3-4c0-1.6-0.4-2.5-1.1-2.9c0-1.5,0.8-2.7,2.4-3.8c0-1.4-0.1-2.2-0.3-2.6
		c3.2-9.3,4.8-15.7,4.8-19l-5.2-6.7l-10.6-1.8c-10.2,3.5-17.1,7.5-20.9,12c-7.8,8.2-12.4,15.4-14,21.6c0,0.3-1.5,3.8-4.6,10.6
		c-1.2,2.8-2.2,5.1-3,6.9c1.1-4.8,1.9-9.3,2.6-13.5c0.7-6.9,1.2-11.3,1.6-13.3v-14.4c-0.7-1.5-1.7-2.3-2.8-2.3h-0.3
		c-1.8,0-3,0.1-3.7,0.3c-4.3,0.8-7.5,1.3-9.4,1.3c-0.5,5.3-1.1,8-1.6,8.3c-0.4,4.1-0.9,6.7-1.5,7.6c0,0,0,0.1,0,0.1
		c-0.4-0.1-0.9-0.1-1.4-0.2c-4.1,1.6-7.5,2.4-10.2,2.4h-0.6c-2.8-0.1-4.2-0.4-4.4-0.8l-1.6-10.1c0-3-1-7.1-3.1-12.1
		c-2.3-3.7-4.8-5.5-7.3-5.5H381c-4.7,0-8.3,2.5-10.7,7.4c-1.1-1.2-2.4-1.8-4-1.8h-0.5c-2,0-4.2,1.2-6.7,3.5
		c-1.6,3.8-3.3,6.7-5.3,8.7c-1.5,3.3-2.4,4.9-2.7,4.9c-1.4,2.6-2.6,5.1-3.7,7.4c-1,1.2-1.9,2.5-2.7,3.9c-1.5,2.6-5.1,9.1-10.8,19.4
		c-8.3,16.4-12.4,25.3-12.4,26.9c-6.2,14.8-12,28.3-17.2,40.3c-13-1.7-24-2.7-32.9-3.2c7.5-26.7,11.2-44.7,11.2-53.9
		c1.8-19.1,3.6-32.1,5.5-39c1.8-16.2,3.4-29.4,5-39.6c0,0,0.1,0.1,0.3,0.1c1,0,4.4-0.4,10.2-1.1c15.3-1.8,28.4-4.5,39.3-8.3
		c6.3-3.1,10.6-5,13.1-5.6c0-0.3,0.2-0.5,0.6-0.5c0.6,0,1.6,0.4,3.2,1.1l7.7-3.2c6.5-1.1,12.5-2.6,18-4.7
		c20.7-4.9,33.1-8.2,37.3-9.8c16.1-1.8,24.2-3.3,24.2-4.6c4.2-0.9,6.3-2.3,6.3-4.3l-1.5-2.3c-9.4,1-14.6,1.5-15.6,1.5
		c-0.9-0.2-2-0.3-3.4-0.3c-1.1,0-1.9,0.3-2.4,0.9c-30.9,3.4-53.3,6.7-67.3,9.7c-15.1,5-37.7,10.9-67.9,17.5
		c2.8-12.6,4.2-21.9,4.2-28v-1.7c-4.3-1.4-7-2.5-8.3-3.2h-2.9c-1.1,1.1-2.9,1.6-5.4,1.6C280.9,55.9,279,67.4,277,76
		c0-0.5-0.7-0.7-2.2-0.7h-5.5c-1.7,0-3.8-0.1-6.4-0.3c-11.3,1.8-25.5,3.9-42.8,6.3c0,0-0.7-0.2-2.1-0.5l-17.7,1.3
		c-12.2-2-19.6-4.3-22.1-6.8c0-1.1-3.2-3.9-9.5-8.5c-0.6,0-1.1,0-1.5,0.1c-0.9-1.8-2.2-3.1-4-4.1h-0.8c-1.2,0-2.1,0.9-2.8,2.7
		c0,3.3,2.2,7.8,6.6,13.5c10.9,10.3,23.4,15.4,37.6,15.4c1.5,0,21-2.5,58.3-7.4c6,0.7,9.7,1.1,11.2,1.1l1.3-0.2l-0.8,3.7
		c-1.9,14.8-3.8,27-5.7,36.5c-2.2,1.1-5,5.6-8.3,13.8c-3.6,8.8-9.9,26.1-19,52l-1.1,0.3l-0.3-0.3l-1.3,0.3
		c-2.5-3.9-8.2-15.5-16.9-34.9c1-1.3,1.9-2.7,2.6-4.3l10.9-14c4.8-6.2,7.3-9.7,7.3-10.6v-0.1c0.3-12.4-0.2-18.7-1.6-18.7h-0.5
		l-1.6,0.2l-4.8,8.4c-1.4,2.5-2.7,4.4-3.9,5.9v0.1c0,0.7-0.7,1.5-2.2,2.5c-0.6,1.6-1.1,2.4-1.5,2.4c-1.4,1.2-2.7,3.2-4.2,6.1
		c-2.6,2.7-3.9,4.2-3.9,4.7v0.1l-5.2-6.1c-2.8-5.3-5.3-8.7-7.5-10.4c-1.8-3.6-5-5.3-9.6-5.3c-0.7,0-1.4,0-2.2,0.1h-0.3
		c-2.2,0.2-3.7,1.6-4.6,4.1c0.6,3.3,1.6,5.3,2.8,6.1c0.2,0.3,0.4,0.5,0.6,0.7c0,0.1-0.1,0.2-0.1,0.3c-3.4,6.1-6.9,13.2-10.6,21.4
		c-5.5,11.3-10.2,20.3-14,26.9c-2.5,3.3-4.7,4.9-6.5,4.9h-0.6c-1.6-1.4-2.4-3-2.4-4.6v-2.7l0.7-3.5c-0.5,0-0.7,0.5-0.7,1.5
		c0-3,0.4-5.8,1.2-8.3l-0.3-0.7c0.5-3.9,0.7-6.3,0.7-7.3l1.8-23.9c0.7-4.7,1.7-7.7,3.1-9l-0.7-1.3l1.5-7.2c0-1.3-0.3-2.1-1-2.3
		c0-0.3,0.1-0.6,0.1-0.9h1.3c0.8-3.6,1.2-6.4,1.2-8.2c-0.3-2.1-1.2-3.2-2.8-3.2h-0.3c-1.4,0-5,0.7-10.8,2.1c-1.7,0-3.7,2.3-6.1,6.8
		c-2.2,8.7-4.7,15.7-7.5,21.1c0,1.6-2.2,4.7-6.7,9.2c-0.4,1.9-3.9,6.1-10.4,12.6l-1.1-0.1c-0.9,0-1.6-2.8-2.1-8.4
		c0-0.1,0.1-0.9,0.3-2.5l-0.3-3.4c0.3-6.5,0.9-9.7,2-9.7c0.2-2.9,0.7-4.9,1.5-6l-0.1-0.3l-0.1,0.1c0.7-2.3,1.4-4.2,2.3-5.5v-1.7
		c-1-1.6-2.2-2.4-3.5-2.4l0.7-0.3c-0.4-0.7-1.1-1-2-1h-2.1c-2.9,0-4.8,0.4-5.8,1.3c-2.8,0-5.5,11.7-8.3,35.1
		c0.2,2.7,0.3,4.9,0.3,6.7v2.8c1.9,4.7,5.1,7.1,9.6,7.1h4.7c3.8,0,8.8-3.6,14.8-10.9c6.2-5.4,9.3-8.6,9.3-9.7c1-1.3,1.9-2.7,2.7-4.2
		c-0.3,10.9-0.6,20.9-0.9,29.9c0,1.5,0.2,2.2,0.5,2.2c1,8.3,2,13.8,3,16.6c3.2,3.1,4.7,5,4.7,5.8c1.4,0.3,2.8,0.4,4.2,0.4
		c6.9,0,12.6-3.6,17.2-10.8c1.7-3.1,3.9-7.1,6.5-11.8c2.6-4.7,5.4-10.5,8.1-17.4c2.1-5.3,5-11.6,8.5-19.1c1.3,1.7,2.6,3.6,3.9,5.8
		l-0.1,0.9c1.1,4.7,2.1,7.7,3.1,9l-0.1,1.4l0.3,1.1v0.6c0,0.4,0,0.9,0.1,1.5l0.1,0.6l-0.1-0.1c-3.5,3.6-5.4,5.8-5.9,6.9
		c-3.9,4.2-5.9,6.4-5.9,6.5c-5.8,5.7-9.2,10.3-10.2,13.8l0.4,1.3l0.9,0.7l0.3,6.7l2.3,0.5h1.2c2.2-1.8,3.5-2.8,3.9-2.9
		c2.7-3,4.4-4.6,4.9-4.7c5.8-5.7,8.7-8.5,8.9-8.5c0.7-0.1,2.4-1.9,5.1-5.3l12.2,28c3.9,7.5,7.8,11.3,11.8,11.3
		c5.1,0,10.3-6.1,15.6-18.4c3.2-10,6.7-20,10.3-30.1c-0.4,1.6-0.6,2.5-0.7,2.5c-3.9,22-7.1,38.9-9.5,50.6
		c-6.6-0.4-11.5-0.4-14.9-0.1l-5.5,0.5l-2.2,0.5c2.3,1.2,3.6,2.3,3.7,3.3l-12.2,1.1l-0.1-0.7l5.5-0.8l-0.1-1.1l-6.6,0.6l2.1-1.6
		l-2.3-0.1l-5.5,0.5c-9.3,0.8-24.7,3.4-46.2,7.8l0.1,1.1l4.4-0.4l0,0.4c-13.7,3-22.8,5.7-27.2,7.9l0,0.4l2.2-0.6l2.2-0.2
		c-2.4,2.4-5.2,3.7-8.6,4c-13.9,6.8-21.8,10.3-23.6,10.5c-0.1-1.1,7.4-5.1,22.4-12.2c-1.5-0.1-2.6-0.1-3.3,0l-0.1-1.1l1-0.8
		c7.4-1.4,14-3.2,19.7-5.5c0.7,0.1,1.4,0.2,2,0.3c1.3-1,2-1.9,2-2.7c0-0.4,0-0.8-0.1-1.2c0.3-0.4,0.6-0.9,1-1.5
		c1.6-1.1,3.3-2.6,5.1-4.5v-2.6c0.1-0.1,0.3-0.3,0.5-0.5c-0.9-1.5-4-3.1-9.4-4.7c-3.8-0.5-6.4-1.1-7.8-1.6c-2.2,0.1-3.7,0.2-4.7,0.2
		h-2.4c0.4,0,0.7-0.2,0.7-0.5c0-0.2-0.1-0.4-0.2-0.7c-2.5,0.4-3.8,0.6-4.1,0.6h-2.5c-3.1,0.6-4.7,0.9-4.7,1.1
		c-3.4,0.1-5.1,0.5-5.1,1.1c-3.9,0.8-7.4,1.8-10.5,3c-2.9,0.5-4.4,0.9-4.4,1c-4,0.7-6.8,1.4-8.6,2.2l-0.7-0.2
		c-3.5,0.8-5.3,1.6-5.3,2.4c-1.6,0.2-2.4,0.4-2.4,0.7c-3.3,0.5-6.8,1.3-10.4,2.3c-2.9,0.5-5.1,1.1-6.6,1.8v-0.2
		c0-0.2-0.1-0.5-0.2-0.8c-1.8,0.7-3,1-3.6,1.1l-0.9-0.2c-1.5,0.5-3.7,0.9-6.6,1.3c0,0.1,0,0.1,0.1,0.1l-0.1,0.6
		c-0.3-0.7-0.4-1.1-0.5-1.1c0.7-5.5,1.1-9.6,1.1-12.3v-11c-0.4-12-1.6-46.3-3.4-102.9v-2.4c3.7-2.6,7.3-5.4,10.7-8.5
		c4-4.7,7-9.4,9.1-14.1c1.5,0,2.2-1.6,2.2-4.9c2.3-7.4,3.5-11.8,3.5-13.3c1.5-8,2.2-13.1,2.2-15.2c0-0.4,0-0.6-0.1-0.8
		c0-0.5,0.1-1,0.1-1.6v-2.7c0-0.6-0.1-1.7-0.3-3.5c0-1.6-1-3.9-3-6.8c-1.8-2.5-5.1-4.3-9.8-5.5l0.2,0.1c-4.5,0-8.3,0.4-11.4,1.1
		c-3.4,0.9-5.6,2.2-6.7,4.1c-3,3.2-5.5,7.3-7.6,12.2l-3.6,12.7v2.4c-0.5,2.8-0.8,5.7-0.9,8.6c0,0.1,0.1,0.2,0.1,0.3
		c-0.7,3.3-1.1,5.2-1.1,5.9v3.2c-0.4,3.1-0.7,6.2-0.8,9.4c0,0.4-0.1,0.9-0.1,1.7v0.5l-0.3,8.4c-0.1,0.4-0.2,1.1-0.2,2
		c0.3,0.7,0.4,2.8,0.5,6.1c0,0.1-0.5,0.4-1.4,0.9c-0.9,0.8-1.4,1.3-1.5,1.3c-3.9,1.6-7.5,3.8-10.9,6.5c-2.7,1.1-4.1,2.5-4.1,4
		c0,1.7,1.7,2.6,5.1,2.6h0.3c0.8,0,1.2,0.3,1.3,0.9c0.4-0.4,1.3-0.5,2.5-0.5l2.6-0.3c0.7-1.1,2.8-2.7,6.4-5.1c0,4.9-0.2,8.1-0.5,9.5
		l0.3,19.4c-0.1,26-0.2,39.4-0.2,40.1c0.1,14,0.3,22,0.5,24.1c0,2,0.1,3.6,0.1,4.8v2.4l-0.1-0.2c0,0.4,0.1,1,0.1,1.8
		c0,1.8,0.1,2.8,0.3,2.8c0.3,5.3,0.6,9.6,0.9,13.1l-0.5,2c-0.3-0.1-0.8-0.2-1.5-0.2c-0.4,0-3.1,1.1-8,3.4c-4.4,2.1-7,3.8-7.8,5.2
		c-6.5,4.1-11.4,10.5-14.7,19.3c-1.3,2.5-2.2,5.3-2.6,8.4v2.4l0.4,2.7c1.5,4,3.4,6.7,5.5,8c4.5,2.9,7.8,4.4,10.1,4.4h2.2
		c2.7-0.3,4.3-0.6,4.9-1l0.1,0.1c2.2,0,4.6-1.3,7.2-3.9c1.1-0.5,2.4-1.5,3.7-2.9c3.4-1.4,7.2-4.7,11.2-10.1c2.7-6.6,4.5-12,5.6-16.1
		c0.4-3.8,0.5-6.2,0.5-7.4c0-0.4,0-0.6-0.1-0.7c5.3-0.1,8.9-0.4,10.9-0.7l0.3,0.2c8.4-0.8,14.3-1.6,17.5-2.2
		c9-0.7,14.6-1.5,16.7-2.2c3.9-1.4,7.8-2.6,11.7-3.7c3.6-1.4,9.6-2.4,18.2-3h2.6c1.1,0,3.5-0.2,7.2-0.6c1.3,0.1,2.5,0.1,3.8,0.2
		c-5.2,1.2-12.2,3.5-20.9,6.9c-23.4,10.6-36.5,18.9-39.1,25l0,0.3c4.4,1.5,7.1,2.3,8,2.2c9.8-4.9,15.8-8,18.2-9.3l13.8-8.5
		c8-2.4,13.8-4.3,17.3-5.9c6.6-0.6,16.1-3,28.4-7.3c15.4-3.2,23-5.2,22.9-6.1c3,0.3,4.5,0.7,4.6,1c2.4-0.2,8.3-1,17.7-2.3
		c5.9-0.5,8.9-0.6,8.9-0.1c5.6-0.5,11.3-0.7,17.1-0.7c-0.7,5.8-1.8,12.3-3.5,19.6c-1.6,7.3-3.1,18.9-4.5,34.8
		c0.2,1.6,0.3,2.5,0.3,2.6v0.1l-0.1,0.2c0,3.7,0.5,6.9,1.5,9.4c1.6,3.7,4.9,7.1,10,10c1.8,0,4.9-0.5,9.3-1.5
		c0.8,0.1,1.6,0.2,2.3,0.2h1.8c1.9,0,6.9-2.2,14.8-6.7c0.6-1.8,1-2.8,1.2-2.8c1.8-0.4,6.7-9,14.8-25.9c2-4.4,7.3-16.6,15.9-36.4
		c7.3,0.7,16.6,2.1,28.2,4.3c23.7,2.9,36.2,5,37.5,6.4c5.9-0.5,12.3-0.3,19.1,0.8c61.1,6.3,92.7,9.4,94.7,9.2l1.1-0.1
		c-0.1-1,3.9-1.8,12.1-2.5c0,0.5,1.9,0.6,5.6,0.2l0,0.3c-2.6,0.5-4,0.7-4.4,0.8c4.5,0.5,6.8,0.9,6.8,1.2c-2.6,0.5-4,0.7-4.4,0.8
		c0.1,0.7,4.6,1,13.5,0.9c25.7,1.6,48.5,2.6,68.5,3.2c20,0.4,46.2-0.1,78.7-1.7c0,0,0,0.1-0.1,0.1c-6.3,15.3-9.4,25.3-9.4,30.1
		c-0.9,8.4,0.1,16.2,2.9,23.4c0,1.5,3.6,6,10.9,13.4h1.6c0.8,0,1.5-0.1,1.9-0.4c2,0.4,4.4,0.7,7.3,0.9c1.4-0.4,2.2-0.5,2.4-0.5
		c0.6,0,1.2,0.1,1.9,0.3c8.8-0.4,13.3-0.9,13.3-1.4c2.8-0.1,4.2-0.8,4.2-2c2.6-1.4,4-2.1,4.4-2.1c2.9-2.7,4.8-4.2,5.7-4.5
		c6-5.3,10.7-11.1,14.1-17.2c3.6-4.3,7.5-14.9,11.7-31.9c0.2-1.5,0.5-5.8,0.9-13l13.4-1.2c6.6-0.6,13.1-1.3,19.5-2
		c-0.1,0.3-0.2,0.5-0.3,0.7v2.6h0.3c-0.4,1.2-1.2,3-2.3,5.3h-0.5c-1.4,0-2.5,1.2-3.2,3.5l-5.5,16.3c-2.8,7.4-4.6,12.1-5.3,14.2
		c-0.7,2.1-1.7,6.1-2.8,12.1c-1.2,6-1.7,11.8-1.7,17.6v3.4c0.1,3.1,0.4,4.6,0.8,4.6l0.8,5.1c1,9,2,14.7,3,17.3
		c2.6,2,4.1,3.8,4.6,5.4c3.6,5.1,6.1,7.7,7.6,7.7c4.7,4,9.1,6.6,13.3,7.7c6.2-1,11.2-3,15-5.9c3-3.7,5-5.5,6-5.5
		c0.7,0,4.2-2.6,10.5-7.8c1.7-2.8,4.2-6,7.5-9.6c4.6-8.5,9.5-19.7,14.5-33.6c1-6.2,2.1-11,3.2-14.6c2.5-12.1,5-22,7.7-29.7
		c0-0.5-0.1-1.8-0.3-4l2.1-13.1c0.2-4,0.5-7.8,0.8-11.5c19.2-4,37-8.5,53.2-13.7c19-6.3,32.8-13.1,41.5-20.3c2.8,0,6.2-2.9,10.4-8.5
		c4.1-3.4,10.6-13.7,19.5-30.7c6-9.8,10.9-19,14.9-27.8C989.3,130.6,987.7,129.8,986.2,129.8z M651.1,108.4c0.7-0.8,2.7-1.7,6.1-2.7
		c1.2,0,1.9,0,2,0.1c0,1.1,0.1,2.7,0.3,4.9l-0.7,3.4h0.2c-0.2,0.5-0.5,1.3-0.8,2.2c0,0.6,0.3,1.5,0.8,2.6c0,0.2-0.1,0.3-0.1,0.4
		c0,0.2,0,0.3,0.1,0.3c0.1,0,0.2-0.1,0.3-0.2h0.1c0,1.2,0,2.1,0.1,2.7l-0.8-1.6c-1.7,0-3.6,1.5-5.5,4.5c-5,3-9.5,4.6-13.4,4.7
		C641.4,122.5,645.2,115.4,651.1,108.4z M582,144.1l-4.2,14.4c-1.3,3.2-2.5,6.7-3.6,10.4c-1.4,5-2.9,9.4-4.7,13.2
		c-4.2,7.8-7.8,13.5-10.7,17c-1.8,2.7-3.7,5.2-5.7,7.3c-15.8,14.7-21.7,8.8-17.7-17.7c0-4.8,3.1-12.7,9.4-23.7
		c3.8-6.4,6.9-10.7,9.4-12.8c0.8-1.5,1.3-2.2,1.5-2.2c2.4-3.1,4.3-5.4,5.9-6.9c6.7-5.9,10.1-9.1,10.1-9.4c3.3-3.2,8.9-6.7,16.6-10.7
		L582,144.1z M475.1,143.6c0,0.2-0.1,0.3-0.1,0.5l-0.9-0.5H475.1z M381.2,107.9c2.2,1.2,4.1,6.9,5.8,17.1c-5.8-5.1-8.8-9.1-8.8-12
		C378.3,110.6,379.2,108.9,381.2,107.9z M359.5,149.7c5-12,8.3-23.3,9.9-33.8c0.2,2.5,3.3,7,9.2,13.7l6.5,4.8v1.6
		c0,5.9-0.8,12.4-2.3,19.4c-0.6,3.4-2,7.3-4.1,11.5c-4.1,5.2-6.7,7.8-7.8,7.8c-2.4,0-4.7-1.2-7.1-3.5c-3.1-5.3-4.6-10.5-4.6-15.6
		L359.5,149.7z M39.6,275.4V275c0,0,0.1,0,0.1,0.1C39.6,275.2,39.6,275.2,39.6,275.4z M45,252.8c-1.3,4.2-2.7,7.4-4.2,9.5
		c-4.9,6.8-9.2,10.8-13,12.1l-0.1-0.1c-2.5-2.9-3.8-5.7-3.8-8.2v-1.7c0-1.5,0.6-3.8,1.8-7.1c1.6-3.4,2.9-5.1,4.1-5.1
		c1.7-1.5,6.3-3.6,13.7-6.3c0.4-0.3,1.2-0.6,2.3-0.9c0-0.4,0.1-0.6,0.3-0.6h0.1C45.8,247.9,45.4,250.6,45,252.8z M59.4,62.1
		c0.2-3.6,0.5-6.1,0.9-7.5c0-5.3,0.7-11.3,2-17.8c1.3-2.6,3.5-2.6,6.5,0.1c0.2,0,0.9,2,2.1,6.1l-0.2,1.6c0.8,5.7,1.2,9.1,1.2,10.2
		c0,4.8-0.5,8.4-1.5,10.8c-0.6,4.7-2.5,9.8-5.6,15.4c-1.5,3.2-2.7,2.7-3.8-1.3C59.9,75.8,59.4,69.9,59.4,62.1z M73.9,228.1v-1.5
		c0.5,0.2,0.9,0.3,1.3,0.3C74.6,227.3,74.2,227.7,73.9,228.1z M132.9,238.2l0,0.3c0,0.5-0.7,0.8-2.2,0.9l-1.1,0.1l-0.1-1.1
		L132.9,238.2z M128.6,240.1c0,0.5-0.7,0.8-2.1,0.9l-1.1,0.1l-0.1-0.7L128.6,240.1z M98.2,262l-2.3-0.1c0.6-1.5,1.6-2.3,3.1-2.5
		l1.1-0.1l2.2,0.2C102.5,260.7,101.1,261.5,98.2,262z M111.8,252.5l0-0.4c0-0.4,0.7-0.7,2.2-0.9l0,0.4
		C114,252,113.3,252.3,111.8,252.5z M147.5,238.7l-1.1,0.1c0-0.4,0.7-0.7,2.2-0.9l1.1-0.1C149.7,238.3,149,238.6,147.5,238.7z
		 M167,232.6l-1.1,0.1c-0.1-1,4.3-2.3,13.1-4.1c0,0.2,0.4,0.3,1.1,0.3C180.2,229.3,175.8,230.5,167,232.6z M198.7,224.6l-7.8,0.7
		c3.4-1.8,7.4-2.9,12-3.3c0,0.2,1.1,0.3,3.3,0.1l0,0.4C205.3,223.5,202.8,224.2,198.7,224.6z M303.8,223.1c0,0.1-0.1,0.2-0.1,0.3
		l0-0.3C303.7,223.1,303.8,223.1,303.8,223.1z M283.4,221.7l2.2-0.2l2.2,0.1c0,0.5-0.7,0.8-2.1,0.9l8,1.8l0,0.4
		c-5.7,0.5-10.6,0-14.7-1.6l0-0.4C280.2,222.7,281.6,222.3,283.4,221.7z M270.2,140.2v-0.9h0.2L270.2,140.2z M239.7,220.5l-0.1-1.1
		c1-0.8,2.1-1.3,3.2-1.4l1.1-0.1c2,0.3,3.9,0.5,5.6,0.6c-0.2,0.7-0.3,1.4-0.4,2.1C242.9,221.2,239.8,221.2,239.7,220.5z M279.4,276
		c-5.1,8.8-8.8,13.6-11.2,14.2c-1.8,0-3.3-0.4-4.4-1.1c-3.3-5.7-5-10.7-5-15l1.1-9l6.5-29.1c1.2-4,2.3-7.8,3.3-11.4
		c2.6,0,3.9,0.2,3.9,0.5l-0.9,1.9c6,0.4,9,0.8,9,1c11.9-0.5,17.9-0.2,18,0.9c0.5,0,1.1-0.1,1.6-0.1
		C292.7,248.4,285.4,264.1,279.4,276z M313.7,225.8c0.2-0.4,0.3-0.7,0.5-1.1c1.3,0.2,1.9,0.4,1.9,0.6l0,0.4
		C315.3,225.7,314.5,225.7,313.7,225.8z M326.5,228.3c-1.3,0.1-2.1,0-2.3-0.5l-0.1-0.7l3.3-0.3c0,0.2,0.4,0.6,1.2,1L326.5,228.3z
		 M337.8,229.4l-0.1-0.7l4.5,0l0,0.4L337.8,229.4z M378.6,235.9c-1.3,0.1-2.1-0.1-2.3-0.5l1.1-0.1c1.5-0.1,2.2,0,2.3,0.5
		L378.6,235.9z M385.4,236.7c-1.3,0.1-2.1-0.1-2.3-0.5l1.1-0.1c1.5-0.1,2.2,0,2.3,0.5L385.4,236.7z M396.7,237.9
		c-1.3,0.1-2.1,0-2.3-0.5l1.1-0.1c1.5-0.1,2.2,0,2.3,0.5L396.7,237.9z M412.5,239.7c-1.3,0.1-2.1,0-2.3-0.5l3.3-0.3l0.1,0.7
		L412.5,239.7z M448.3,239.8l-2.3-0.2l1-0.8c1.5-0.1,2.2,0,2.3,0.5l0,0.4L448.3,239.8z M455,240.6c-2.3-0.1-3.4-0.4-3.4-0.8l5.6-0.5
		l0,0.3C457.2,240.1,456.5,240.5,455,240.6z M485.7,245.8c-16.4-0.1-24.6-0.5-24.7-1.4l0-0.4c0.9-0.1,10.3,0.3,28,1.1l0,0.3
		L485.7,245.8z M519,243.5c-2.2,0.2-3.4,0.1-3.4-0.4l4.5,0l0,0.4L519,243.5z M594.1,246.1c1.5-0.1,2.2,0,2.3,0.5l-4.4,0.4l-5.6,0.1
		l0-0.4L594.1,246.1z M521.7,248.3l-0.1-0.7l1.1-0.1l5.6-0.1l0,0.3L521.7,248.3z M534.8,244.6l0-0.4l1.1-0.1c1.8-0.2,5.9-0.2,12.3,0
		l0,0.3l-1.1,0.1C545.2,244.8,541.1,244.8,534.8,244.6z M638.1,250.1l-25.6,1.2c-42.2-0.6-63.8-1.2-65-1.7l-0.1-0.7
		c21,1,51.5,1.3,91.7,0.8l0,0.4L638.1,250.1z M956.8,143.6c0,0.2-0.1,0.3-0.1,0.5l-0.9-0.5H956.8z M793.7,230.4
		c1.9-2.4,4-4.8,6.2-7.3c7.3-8.1,13.4-13.7,18.4-16.6c5-2.9,10.4-6.2,16.2-9.6c2.1-1.7,3.6-2.8,4.6-3.5c-0.1,1.3-0.3,2.9-0.6,5
		c-1,8.8-2.2,17.7-3.7,26.7C822.7,226.9,809,228.7,793.7,230.4z M824.1,231.1l-7.7,1.4l-6.6,0.6c-0.1-0.6,2.1-1.2,6.5-1.7l7.8-0.7
		L824.1,231.1z M786.5,240.4c0.1-0.2,0.2-0.3,0.3-0.5l17.8-2l1.1-0.1l0,0.4c-7.8,1.3-14.3,2.2-19.6,2.8
		C786.3,240.8,786.4,240.6,786.5,240.4z M792.5,232c0.4-0.1,0.9-0.2,1.5-0.3l1.1-0.1l0.1,0.7l-3.1,0.3
		C792.2,232.4,792.4,232.2,792.5,232z M753.6,180c9.7-10.8,16.7-19.3,20.8-25.5c0.8-0.5,2.8-2.8,6.1-6.7c0.1-0.1,0.2-0.2,0.3-0.4
		c-1.4,6.3-2.6,15.7-3.8,28.2v0.6c0,3.3,0.5,5.8,1.5,7.6c3.7,3.5,6.8,5.2,9.2,5.2h0.5c3,0,6.4-1,10.3-3c2.4-1.9,3.9-2.8,4.6-2.8
		c6.7-7.5,12.2-15,16.4-22.5c2.5,4.7,5.6,7,9.5,7c2.9,0,4.4-0.2,4.4-0.5c1.8,0,6.4-3.6,13.6-10.7c-0.5,2.3-0.9,3.7-1.1,4.3
		c-1.8,10.1-2.9,15.7-3.5,16.7c-6.8,3.8-11,6.5-12.7,8.2c-4.6,2.2-8,4.8-10.4,7.8c-2.4,1.4-4.4,3.1-6,4.9c-3.3,1.5-6.2,3.5-8.6,6
		c-3.5,3.5-9.1,10.1-16.6,19.8c-1.7,2.7-3.3,5.2-4.6,7.4c-12.4,1.4-25.7,2.8-39.9,4.2c0.1-2.8,0.3-5.8,0.4-9l-0.3-1.3
		c0.2-1.1,0.3-1.8,0.3-2.1c-1.2-13.9-2.5-24.8-3.7-32.8C743.4,189.5,747.9,186,753.6,180z M685.8,237.7c0.8-0.3,1.9-1.4,3.3-3.2
		l-0.3-1.5c2.3-3.4,3.6-5.2,4-5.2c3.6-6.6,8.9-12.2,15.9-17.1c5.3-4,8.5-5.9,9.6-5.9c5.6-4.1,8.4-6,8.4-5.8l0.1,13.8
		c-0.2,4-0.3,8.8-0.3,14.5v3.4c0,1.7-0.2,3.9-0.5,6.6c-3.5,0.3-7.1,0.7-10.7,1c-6.4,0.6-16.7,1.2-30.8,1.8L685.8,237.7z
		 M683.8,241.5c12.6-0.6,25.7-1.5,39.4-2.7c0.8-0.1,1.7-0.2,2.7-0.3c0,0.2-0.1,0.5-0.1,0.7l-10.3,0.9l-11.1,0.6
		c0,0.2-2.2,0.7-6.6,1.3c0-0.3-4.9-0.1-14.6,0.4L683.8,241.5z M720.3,244.9l-7.8,0.4l0-0.4c0.7-0.1,1.8-0.3,3.3-0.7
		C718.8,244.3,720.3,244.5,720.3,244.9z M696.1,248.9l0,0.4l-5.5,0.9l-1.1,0.1c-2.6,0.2-6.2,0.5-10.8,0.7l0.6-1.2L696.1,248.9z
		 M680.6,247.4l0.8-1.5c8.1-0.2,12.1-0.1,12.2,0.3c-2.2,0.2-4.8,0.6-7.7,1.1L680.6,247.4z M654.6,246.8c6.9-0.3,12.9-0.5,18-0.7
		c-0.2,0.5-0.5,1-0.8,1.5l-21.6,0.6l-0.1-0.7C651.8,247.4,653.3,247.2,654.6,246.8z M649.4,252l-0.1-0.7l21.2-1.1
		c-0.2,0.4-0.4,0.7-0.5,1.1C664.2,251.5,657.4,251.8,649.4,252z M723.8,251.6c-2.5,14.3-4.8,23.1-6.7,26.6c-3.9,8.4-7,14.3-9.4,17.5
		c-2.9,5.1-7.8,10-15,14.4c-2,1.2-4.5,2.1-7.6,2.6c-5.1-1.1-8.9-2.7-11.6-4.9c-4-4.7-6-9.2-6-13.4v-3.2c0-3.2,0.4-6.5,1.3-10
		c0-2.7,3-12.2,9.1-28.5c13.6-0.7,28.2-1.5,43.9-2.6l2.2-0.2C724,250.5,723.9,251.1,723.8,251.6z M752.1,237.3l-5.5,0.8
		c0-0.3-1.1-0.4-3.2-0.3c0-0.3,0-0.7,0-1c6.1-0.6,13.4-1.3,21.8-2.2c3.9-0.1,7.6-0.3,11.1-0.7l0,0.4c-5.1,1-9.5,1.6-13.2,1.9
		L752.1,237.3z M768.2,242.3l0-0.4l9.8-1.1c-0.2,0.3-0.3,0.6-0.5,0.9L768.2,242.3z M775.3,255.8L775.3,255.8v0.3V255.8z
		 M830.7,249.7c0,6.2-2,16.3-6.1,30.3c0,2.1-2.4,10.3-7.1,24.5c-3.1,11.7-6.8,22.2-11,31.5c-1.5,4.6-4.5,8.9-8.9,13.1
		c-2.8,3.8-6.3,5.7-10.6,5.7h-3.8c-4.8-1.9-7.2-3.2-7.2-3.7c-5.5-7.4-8.2-12.6-8.2-15.6c-1.4-3.6-2.2-11.7-2.2-24.1v-0.6
		c0-12.3,2.7-25.6,8.2-40l1.1-4.5c2.2-7.1,3.7-10.7,4.3-10.7c1.1-3.5,2.8-7.3,5.1-11.4c17.1-2,33.3-4.4,48.7-7.1
		C832.3,241.2,831.5,245.4,830.7,249.7z M851.7,231.2c0-0.4,0.1-0.7,0.1-1.1c3-0.6,6.4-1.3,10.1-2.1l1.1-0.1l0.1,0.7
		C858.8,229.6,855,230.5,851.7,231.2z M930.2,204.8l-0.1-0.7c1-0.8,2.1-1.3,3.2-1.4l0.1,0.7C932.4,204.2,931.3,204.7,930.2,204.8z
		 M932.3,190.8c-0.4,4-1.9,7.3-4.7,9.9c-13.9,7.1-23.6,10.9-29.2,11.4c-9.3,3.5-24.7,6.9-46,10.4c0.9-9.1,2-17.4,3.3-24.8
		c0.7-8.2,1.1-13.2,1.1-14.8c0-0.4,0-0.6-0.1-0.6l21.2-23.9c5.6-6.3,10-11.6,13.3-16c-0.2,5.5-0.4,9-0.6,10.6
		c0.4,2.7,0.5,4.1,0.5,4.3l-0.8,1.6c0,1.5-0.5,11.6-1.5,30.3l11.6-0.5c3.2-2.8,5.7-8.8,7.7-18.2c1.4-3.1,4.3-8.6,8.8-16.6
		c4.8-9.3,8.4-16.7,10.9-22.2c2.6-5.2,6.8-9.6,12.6-13.3c4.8-4.5,7.7-6.7,8.6-6.7c1.1,0,2,0.8,2.4,2.5c-0.3,1.1-0.5,2.1-0.5,2.9
		c-1.8,1.9-2.9,4.3-3.4,7c-1.6,6.7-5.2,17.1-10.7,31.1c-1.1,0-2.3,6.1-3.4,18.2c0.6,1.1,0.9,1.8,0.9,2.2c0,0.6-0.4,1.6-1.1,3
		c0,5.2,0.5,8.8,1.6,10.6c0.2,0.3,0.3,0.6,0.5,1l-1.1,0.1L932.3,190.8z"/>
	<path class="st0" d="M498.3,249.4l-5.5,0.5c1.4,0.9,4,1.1,7.9,0.7l1.1-0.1l0-0.4C500.6,249.5,499.4,249.3,498.3,249.4z"/>
	<path class="st0" d="M650.8,242.8l2.2-0.2l2.2-0.6c-0.1-0.6-2.3-0.7-6.7-0.5l-11.1,1C637.5,243.1,641.9,243.2,650.8,242.8z"/>
	<path class="st0" d="M506.2,250.1l-4.4,0.4c0,0.5,0.8,0.7,2.3,0.5l4.4-0.4C508.4,250.2,507.7,250,506.2,250.1z"/>
</g>
</svg>
